<?xml version="1.0" encoding="UTF-8" standalone="no"?>
<svg
   xmlns:svg="http://www.w3.org/2000/svg"
   xmlns="http://www.w3.org/2000/svg"
   width="700"
   height="475"
   id="svg2120"
>
  <g id="base map">
    <g id="world" style="display:inline">
      <g id="coast" style="display:inline">
        <path
           d="m 630.96,275.22 0.84,-0.12 0.84,-0.12 0.7,-1.16 0.49,-0.82 0.5,-0.83 0.91,-0.58 0.25,0.92 0.24,0.93 0.24,0.92 0.24,0.93 -0.13,0.76 -0.12,0.77 0.2,1.35 0.2,1.35 -0.69,-0.42 -0.12,0.77 -0.13,0.78 -0.13,0.77 -0.14,0.78 -0.33,0.09 -0.91,0.69 -1.5,-1.87 -0.33,-0.94 -0.34,-0.94 -1.49,-1.93 -0.31,-1.46 1.02,-0.62
m -36.75,-78.69 0.98,0.8 0.97,0.8 0.02,-0.61 0.01,-0.6 0.01,-0.61
v -0.61
l 1.23,0.6 1.33,0.2 0.37,0.78 0.36,0.77 0.94,1.08 0.94,1.07 0.55,0.6 0.56,0.61 0.54,-0.12 0.95,1.04 0.94,1.04 0.4,0.88 0.4,0.88 0.8,0.72 0.8,0.72 2.3,-0.42 1.74,0.17 1.62,0.13 0.23,1 0.9,0.46 0.9,0.46 0.58,0.68 0.57,0.68 0.57,0.67 0.56,0.68 0.1,-0.7 0.08,-0.7 1.24,0.67 0.07,-0.91 0.49,0.76 0.48,0.77 0.48,0.77 0.47,0.76 0.95,0.38 0.95,0.38 1.21,0.46 1.14,0.66 1.13,0.66 0.78,1.07 0.77,1.08 0.42,0.9 0.42,0.9 0.38,1.05 0.37,1.06 0.9,1 0.88,1.01 0.26,0.74 0.26,0.74 0.26,0.74 0.25,0.74 0.16,0.88 0.16,0.88 0.16,0.82 0.17,0.82 0.16,0.82 0.15,0.82 0.33,0.91 0.33,0.91 0.12,0.65 0.12,0.65 0.12,0.65 0.11,0.65 0.07,0.9 0.07,0.9 0.06,0.89 0.05,0.9 -0.16,0.65 -0.15,0.66 -0.33,1.32 0.1,1.5 0.07,1.52 -0.02,1.03 -0.03,1.03 0.17,1.6 0.17,1.6 -0.07,1.06 -0.07,1.07 0.14,1.38 0.13,1.37 0.2,1.2 0.19,1.2 0.33,0.94 -0.27,0.95 -0.28,0.95 -0.8,0.83 -0.81,0.83 -0.51,1.3 -0.52,1.29 -0.17,0.93 -0.18,0.93 -0.27,1.1 -0.28,1.1 -1.58,-0.23 -1.05,0.33 -0.1,-0.92 -0.1,-0.92 -0.33,0.7 -0.33,0.68 -0.17,0.88 -0.18,0.87 -0.17,0.87 -0.18,0.88 -1.52,0.43 -0.98,0.35 -0.93,0.63 -0.85,0.29 -0.86,0.29 -1.51,-0.87 -0.48,-0.99 -0.48,-0.98 -0.8,-1.15 -1.13,-0.42 -0.8,0.58 -0.8,0.59 0.03,-0.98 0.03,-0.97 -0.54,-0.9 -0.53,-0.9 -0.05,1.41 -0.06,1.41 -0.6,0.99 -0.6,0.98 0.14,-1.23 0.15,-1.23 -0.16,-0.96 -0.16,-0.97 0.07,-1.03 0.06,-1.03 -0.43,-1.02 -0.42,-1.01 -0.1,0.95 -0.11,0.96 -0.11,0.96 -0.11,0.95 -0.32,1.02 -0.33,1 0.09,1.47 0.07,1.47 -1.61,0.1 -0.46,-1.58 -1.7,-1.02 -1.21,-0.17 0.06,-0.98 -1.32,0.24 -1.33,0.25 -0.57,0.56 -0.58,0.57 -1.02,0.17 -1.03,0.16 -0.7,0.86 -0.7,0.85 -0.7,0.86 -0.71,0.85 -0.43,0.82 -0.44,0.82 -0.44,0.82 -0.45,0.81 -0.38,0.74 -0.39,0.73 -0.39,0.74 -0.39,0.73 -0.83,0.76 -0.83,0.77 -0.31,0.81 -0.32,0.82 -0.32,0.82 -0.32,0.81 -0.62,1.09 -0.62,1.08 0.1,0.86 0.1,0.86 -0.12,0.87 -0.12,0.86 -0.72,0.8 -0.72,0.78 -0.5,0.68 -0.5,0.67 -0.86,0.56 -0.86,0.55 -0.58,0.79 -0.57,0.78 -0.59,0.68 -0.59,0.67 -0.26,1.22 -0.28,1.21 -0.56,0.41 -0.32,0.81 -0.32,0.81 -0.27,0.83 -0.29,0.83 -0.68,0.6 -0.68,0.61 -0.61,0.6 -0.61,0.6 -1.29,0.17 -1.28,0.17 -1.18,0.5 -0.51,-1.46 0.4,-0.62 0.39,-0.63 0.09,-0.87 -0.42,-0.83 -0.23,-0.98 -0.23,-0.97 -0.8,-1.27 -1,-0.77 -1,-0.77 -0.88,-1.1 -0.5,-1.5 -1.43,-0.87 -0.35,-0.68 -1.24,-0.14 -1.07,-1.7 -0.95,-0.42 -0.96,-0.43 -0.72,-0.78 1.29,0.21 -1.63,-1.64 1.23,-0.25 0.97,0.38 -0.59,-1.24 -1.78,-0.98 -0.53,-0.6 -0.76,-0.28 -0.22,-0.82 -0.22,-0.83 0.09,-1.01 -0.32,-1.52 -0.86,-1.24 -0.04,-1.3 -0.04,-1.32 1.02,1.75
v -1.28
l -0.02,-1.29 0.54,-1.23 0.53,-1.23 0.19,-1.03 0.18,-1.03 0.46,-1.23 0.46,-1.24 0.7,-1.1 0.64,-0.26 0.47,-1.26 0.46,-1.27 0.46,-0.75 0.46,-0.76
v -0.86
l 0.34,-0.77 0.98,-1.05 0.36,-0.72 0.36,-0.72 0.35,-0.72 0.36,-0.72 0.18,-1.12 0.18,-1.12 -0.13,-0.95 -0.12,-0.94 0.16,-1.25 0.16,-1.25 -0.44,-1.13 -0.68,-1.45 0.01,-0.9
v -0.9
l 0.01,-0.91
v -0.9
l 0.93,0.68 0.92,0.68 0.44,-1.39 -1.22,-0.5 -0.07,-0.94 -0.08,-0.95 1.02,-0.34 -0.42,-1.1 -0.43,-1.12 0.05,-0.6 0.05,-0.6 0.05,-0.6 0.04,-0.6 -0.09,-0.76 -0.09,-0.76 0.28,-0.74 0.27,-0.74 -0.38,-0.75 0.85,-0.6 -0.34,-0.7 0.23,-0.63 0.23,-0.65 0.27,-0.67 0.27,-0.68 1.82,-0.32 1.74,0.41 0.48,-0.63 0.47,-0.63 1.1,-1.05 -1.16,-1.02 -0.13,-0.78 -0.14,-0.77 -0.14,-0.78 -0.14,-0.77 0.12,-0.82 0.11,-0.81 -0.63,-0.34 -0.08,-0.6 -0.08,-0.6 -0.08,-0.61 -0.08,-0.6 0.13,-1.1 0.13,-1.1 0.91,-0.75 0.21,-0.56 0.21,-0.57 0.2,-0.56 0.21,-0.57 -0.45,-0.66 -0.46,-0.67 -1.57,0.66 0.23,-0.75 0.23,-0.76 1.33,-0.72 1.43,-0.01 1.58,-1.07 0.19,-0.87 1.36,-0.45 0.13,-1 0.11,-1 0.65,-0.55 -0.06,-1.01 1.5,0.41 0.32,1.02 0.31,1.02 0.12,0.95 0.1,0.95 -0.39,0.8 0.86,0.87 0.24,0.98 0.23,0.99 0.18,1.04 0.17,1.04 0.57,0.63 2.02,-0.07 1.59,-0.65 1.28,-0.06 1.97,0.23 0.38,-0.56 1.13,-0.3 0.72,0.58 1.86,-0.89 0.08,-0.56 0.08,-0.57 0.08,-0.57 0.08,-0.56 -0.32,-0.97 -0.33,-0.97 -0.25,-0.84 -0.25,-0.84 -0.4,-0.92 -0.41,-0.91 -0.26,-0.73 -0.26,-0.73 -0.26,-0.73 -0.26,-0.73 -0.54,-0.56 -0.53,-0.56 -0.45,-0.99 -0.61,-0.71 -0.61,-0.72 -0.64,-1.22 -0.64,-1.23 -0.17,-0.98 -0.84,-0.65 -0.38,-1.01 -0.39,-1.02 -0.44,-1 -0.45,-0.99 -0.55,-0.88 -0.17,-0.94 -0.18,-0.94 0.66,0.41 0.67,0.42 0.68,0.84 0.68,0.85 0.54,-0.18 0.9,1.15 0.72,0.37 0.72,0.37 0.61,0.76 0.6,0.76 0.67,1.14
m -470.68,-18.75 -0.35,-0.41 0.55,-0.87 0.55,-0.87 0.17,-0.7 0.17,-0.69 0.84,-0.43 0.85,-0.43 0.17,0.71 -0.8,1.23 -0.81,1.23 -0.67,0.62 -0.67,0.61
m 6.34,-6.46 -1.3,-1.94 0.83,-0.9 0.58,0.82 0.48,1.43 -0.59,0.6
m 0.74,1.67 -0.91,0.55 -0.91,0.56 0.13,-0.64 1.25,-1.05 0.27,-0.87 0.28,-0.86 0.27,-0.24 -0.2,1.27 -0.18,1.28
m 58.12,-14.9 0.23,1.38 0.78,1.37 -1.34,0.03 -0.44,-0.44 0.02,-1.39 0.03,-1.39 0.61,-1.01
h 1.01
l -0.45,0.73 -0.45,0.73
m 7.4,-2.03 -0.4,-0.68 -0.06,-1.25 -0.07,-1.24 0.26,-1.12 0.27,-1.11 0.43,0.36 0.13,1.19 0.13,1.19 -0.14,1.14 -0.14,1.13 -0.4,0.39
m 12.4,-102.46 0.27,-0.82 0.95,-0.66 0.95,-0.65 0.96,-0.65 0.96,-0.65 1.57,-0.43 1.21,-0.67 1.23,-0.66 1.15,-0.22 1.07,-0.77 1.09,-0.76 1.12,-0.21 1.12,-0.2 0.56,0.2 -1.15,0.75 -1.14,0.75 -0.7,0.45 -0.69,0.45 -0.87,0.7 -0.86,0.71 -1.55,0.46 -1.1,0.35 -1.1,0.35 -1.35,0.77 -1.36,0.78 -1.17,0.31 -1.17,0.32
m -4.42,107.4 -1.25,0.4 -1.25,0.43 1.3,0.22 0.08,1.35 -1.07,0.22 0.16,1.78 0.94,0.13 0.1,1 0.12,0.99 -0.93,0.55 -0.92,0.55 1,0.6 -1,1.28 -0.5,0.87 -0.5,0.87 -1.13,0.64 -1.13,0.64 -0.52,-0.55 -0.24,-1.33 0.98,-0.7 0.97,-0.71 0.01,-0.65 -1.47,0.07 -1.47,0.09 -0.47,-0.93 0.83,0.02 0.83,0.02 -0.17,-0.93 -0.17,-0.94 -1.07,-1.42 -1.57,-2.88 0.55,-0.81 1.3,0.21 0.27,-1.16 1.03,0.01 1.02,0.02 1.1,-0.43 1.12,-0.42 1.1,-0.42 1.12,-0.41 0.88,-0.14 0.89,-0.14 0.73,0.24 0.73,0.25 0.27,0.7 -0.76,0.28 -0.92,0.27 -0.92,0.26
m 35.83,-119.46 -1.1,0.52 -0.7,0.66 -0.68,0.66 -0.3,-0.15 -0.3,-0.14 -0.3,-0.15 -0.31,-0.14 -0.31,-0.14 -0.31,-0.14 -0.32,-0.14 -0.31,-0.14 -0.9,0.18 -0.91,0.19 -0.91,0.19 -0.92,0.19 0.67,-0.56 1.13,-0.29 1.13,-0.28 0.93,-0.11 0.92,-0.11 0.83,-0.24 0.84,-0.23 0.71,0.03 0.72,0.03 0.35,0.16 0.35,0.15
m -16.1,71.63 -0.75,0.01 -0.74,0.02 0.22,-0.62 0.82,-0.6 0.2,-0.02 0.85,0.2 -0.05,0.5 -0.56,0.5
m 1.51,-3.67 -0.76,-0.48 -0.76,-0.48 0.1,-0.88 0.77,-0.49 0.64,0.27 0.63,0.27 -0.07,1.65 -0.55,0.14
m 8.52,-5.9 -1.26,0.48 0.39,0.47 -0.8,0.82 -0.51,0.73 -0.52,0.74 -0.46,0.76 -0.46,0.77 -0.67,0.24 -0.67,0.24 0.22,0.78 -0.93,1.11 -0.89,-0.76 0.35,-1.01 0.36,-1 0.65,-0.5 0.64,-0.5 -0.72,-0.39 -0.72,-0.38 -0.67,-0.66 -0.67,-0.66 0.85,-0.4 0.85,-0.4 -0.1,-1.54 0.64,0.35 0.65,0.36 1.1,-0.17 1.11,-0.16 0.64,-0.04 0.64,-0.04 0.64,-0.04 0.63,-0.03 -0.31,0.84
m 4.03,8.67 -0.2,-1.1 0.67,-0.33 0.67,-0.33 0.78,-0.03 0.79,-0.02 0.43,0.77 -0.7,1 -1.19,0.4 -0.39,0.02 -0.86,-0.38
m 7.83,-20.48 -0.77,-0.6 0.64,-0.64 0.64,-0.63 -0.02,-0.79 0.86,-0.6 0.86,-0.61 0.51,0.87 0.47,0.36 0.46,0.36 -1.12,0.92 -0.68,0.53 -0.61,0.27 -1.24,0.56
m 18.15,-13.2 -0.4,-0.43 -0.41,-0.42 -0.23,0.94 -0.22,0.94 -0.95,0.26 -0.94,0.28 0.34,0.63 0.35,0.64 -0.61,0.2 -0.61,0.2 -0.7,-0.04 -0.7,-0.03 -0.7,-0.02 -0.71,-0.03 0.4,0.35 0.4,0.34 0.71,0.05 0.71,0.06 0.72,0.06 0.71,0.07 -0.02,0.75 -0.82,0.6 -0.73,0.28 -0.74,0.29 -0.69,-0.03 -0.68,-0.02 -0.69,-0.02 -0.69,-0.02 -0.97,-0.06 -0.97,-0.05 -1,0.6 -1,0.6 -0.99,0.72 -0.98,0.72 -0.57,-0.12 -0.56,-0.1 0.46,-1.54 -0.65,0.24 -0.65,0.23 -0.83,-0.42 0.61,-0.83 0.62,-0.83 0.76,-0.74 0.77,-0.73 0.42,-1.1 0.14,-1.9 0.54,-1.2 0.55,-1.21 0.44,-0.84 0.44,-0.84 0.74,-0.06 0.74,-0.05 0.77,-0.47 0.76,-0.48 0.32,-0.85 0.66,-0.07 0.66,-0.06 0.66,-0.06 0.66,-0.06 -0.2,0.65 -0.58,1.41 -0.96,1.12 -0.34,1.22 0.84,-0.69 0.84,-0.68 0.56,-0.89 0.57,-0.88 0.95,-1.1 0.58,0.01
h 0.58
l -0.27,1.1 -0.28,1.1 0.91,-1.18 0.84,-0.49 0.84,-0.48 0.55,0.75 0.55,0.75 0.46,0.95 -0.06,1.26 -0.06,1.25 -0.97,0.5
m -3.61,7.11 -0.67,-0.53 -0.66,-0.54 0.6,-0.17 0.6,-0.16 0.6,-0.17 0.6,-0.16 0.2,0.35 -0.43,0.98 -0.84,0.4
m -5.99,21.52 -0.76,0.25 0.07,-0.85 0.06,-0.86 -0.36,-0.79 0.18,-0.25 0.75,-0.56 0.76,-0.55 0.99,-0.13 0.16,0.33 -0.35,1.77 -0.75,0.82 -0.75,0.82
m 0.7,-7.95 -0.9,0.38 -0.92,0.39 0.54,0.12 0.53,0.13 0.53,0.13 0.53,0.13 0.46,0.9 0.46,0.9 -0.74,0.43 -0.74,0.44 -0.73,0.44 -0.74,0.45 -0.9,0.1 -0.9,0.1 0.74,1.45 0.55,0.26 0.55,0.26 -0.68,1.05 -0.68,1.05 -0.62,0.73 -0.62,0.74 -1.2,0.46 0.77,1.34 -0.81,0.73 -0.81,0.72 -0.38,1.22 -0.37,1.22 -0.93,1.18 -1.16,0.94 -1.16,0.95 -0.8,-0.56 -0.79,-0.57 -0.63,1.47 -0.63,1.48 -0.2,1.75 -0.99,1.29 -1,1.3 0.33,1.58 -0.95,0.35 -0.95,0.35 -0.89,-0.02 -0.89,-0.03 -0.89,-0.02 -0.89,-0.01 0.37,-0.93 0.36,-0.92 0.52,-0.72 0.53,-0.7 0.52,-0.72 0.53,-0.7 -0.64,-1.14 -0.78,0.29 -0.77,0.29 -0.64,0.91 -0.64,0.92 -0.42,1.01 -0.4,1.02 -0.58,0.8 -1.17,1.04 -1.18,1.05 -0.99,0.33 -0.98,0.33 0.14,-0.9 0.14,-0.88 0.35,-0.97 0.34,-0.96 0.35,-0.96 0.36,-0.96 -0.95,1.35 -0.94,1.36 -0.63,1 -0.63,1.01 -0.85,0.68 0.1,-1.83 0.12,-1.82 0.5,-1.6 0.26,-0.8 0.26,-0.8 0.53,-0.99 0.53,-0.98 0.83,0.06 0.57,-1.13 0.57,-1.12 0.56,-1.07 0.57,-1.06 -0.8,0.32 -0.7,-3.07 0.91,-1.27 1.04,0.03 1.04,0.03 0.17,2.02 0.58,2.08 0.93,-0.72 0.7,-0.08 0.7,-0.07 0.71,0.08 0.7,0.08 0.71,0.08 0.7,0.08 1.18,-0.72 0.89,-0.7 0.6,-0.97 0.58,-0.95 0.41,-1.1 0.42,-1.11 0.72,0.4 0.84,-0.73 0.84,-0.73 0.15,-0.85 0.94,-0.94 -0.82,-0.3 -0.3,-1.57 0.22,-0.87 0.22,-0.86 0.23,-0.86 0.22,-0.87 0.55,-1.01 0.54,-1.02 0.67,-1.5 1.12,-0.82 0.55,0.41 0.54,0.42 0.26,-1.23 0.71,-0.1 0.72,-0.1 0.71,-0.09 0.71,-0.09 0.58,0.14 0.58,0.13 0.58,0.14 0.58,0.14 0.48,0.38 0.48,0.38 0.39,1.9 -0.85,-0.21 -0.85,-0.22
m 4.93,-10.32 -0.91,0.78 -0.18,1.36 -0.85,0.1 -0.5,-0.43 -0.5,-0.42 -0.8,0.53 -0.8,0.54 -0.58,-0.09 -0.6,-0.08 -0.6,-0.08 -0.59,-0.08 -0.53,-1.46 0.55,-0.8 0.62,-0.23 0.63,-0.22 0.72,-0.42 0.73,-0.42 0.73,-0.42 0.73,-0.4 0.82,0.16 -0.52,0.76 -0.52,0.76 1.04,-0.27 1.04,-0.27 0.44,0.55 0.43,0.55
m -4.8,5.14 -0.9,-0.47 -0.89,-0.46 0.4,-0.93 0.64,-0.1 0.63,-0.08 0.63,-0.08 0.64,-0.08 0.66,0.06 0.67,0.06 0.5,0.25 0.5,0.25 0.5,0.78 -0.55,1.52 -0.51,0.7 -0.52,0.7 -0.53,-0.3 -0.54,-0.3 -0.53,-0.29 -0.54,-0.28 -0.27,-0.95
m 8.62,-21.93 0.4,-1.25 0.4,-1.25 0.62,0.11 0.63,0.12 0.67,-0.2 0.66,-0.2 0.66,-0.18 0.67,-0.19 0.5,0.9 0.48,0.77 0.47,0.77 0.36,0.75 0.36,0.75 0.88,0.2 0.89,0.2 -0.83,1.06 -0.82,1.07 -0.6,0.27 -0.61,0.27 -0.75,0.73 -0.74,0.74 -0.57,0.13 -0.57,0.12 -0.75,0.1 -0.75,0.1 0.1,-1.12 -0.12,-2.5 -0.36,-0.86 -0.36,-0.86 -0.46,-0.28 -0.46,-0.27
m -2.56,21.94 -0.92,-0.46 0.53,-1 1,-0.76 0.53,0.26 0.53,0.26 0.38,1.04 -1.12,0.49 -0.93,0.17
m 5.72,-2.5 -0.7,0.11 -0.7,0.12 -0.67,-0.1 -0.67,-0.1 -0.92,-0.32 -0.92,-0.31 0.2,-1.17 0.72,-0.63 0.75,0.16 0.75,0.18 0.3,-1.1 0.5,0.12 0.49,0.12 0.99,0.24 -0.4,0.63 0.47,1.12 -0.51,0.8 0.32,0.13
m 1.64,-6.14 -1,-0.1 0.09,0.68 -0.47,0.6 -0.64,-0.15 -0.63,-0.14 -0.48,-0.38 -0.48,-0.38 0.47,-1.16 0.48,-1.16 0.07,-2.04 0.65,-1 0.8,0.29 0.1,1.76 0.44,-0.72 0.44,-0.71 0.45,-0.71 0.45,-0.71 1.07,-0.59 0.73,1.02 0.73,1.02 0.2,0.86 -0.96,0.57 -0.97,0.57 -1.04,0.2 -1.05,0.2 -0.88,0.98 0.7,0.02 0.71,0.03 0.7,0.03 0.7,0.03 0.52,0.9 -0.64,0.45 -0.63,-0.13 -0.63,-0.13
m -1.49,8.57 -1.07,0.56 -0.34,1.2 -1.03,0.47 -0.98,-0.2 -0.8,0.71 -0.74,0.41 -0.3,0.9 -0.42,0.98 0.43,1.04 0.07,1.33 -0.3,1.1 -1.08,0.84 -1.15,0.32 -0.7,-0.33 -0.52,-0.98 0.42,-0.96 -0.14,-2.02 0.21,-1.48 0.59,-1.17 0.68,-0.92 0.67,-0.93 0.78,-0.07 0.77,-0.07
h 0.68
l 0.68,0.02 0.68,-0.26 0.69,-0.27 0.75,-1.24 1.08,-0.57 0.49,0.2 0.5,0.2 -0.6,1.19
m 7.82,-11.15 -0.8,-0.55 -0.8,-0.55 -0.41,-0.87 0.31,-0.54 -0.01,-1.57 0.47,-1.05 0.56,-0.18 0.55,-0.17 0.65,1.98 0.4,1.95 -0.68,0.7 -0.24,0.85
m -6.86,11.79
v -0.27
l 0.55,-1.04 0.78,-0.02 -0.43,1.11 -0.62,0.33 -0.28,-0.11
m 4.76,-8.76
v -1.28
l 0.63,-0.17 0.64,-0.18 0.42,0.79 -0.28,0.82 -0.83,0.52 -0.58,-0.5
m 1.93,1.26 -0.06,-0.8 0.56,-0.77 0.31,0.18 0.34,0.84 -0.27,0.19 -0.88,0.36
m -4.9,6.6 -0.24,-0.9 0.79,-0.31
h 1.05
l 0.54,0.1 0.54,0.11 -0.36,0.63 -0.29,0.25 -1.13,0.45 -0.9,-0.32
m 1.6,-2.1 -0.58,-0.03 -0.58,-0.03 0.68,-0.8 0.62,-0.3 0.62,-0.3 0.68,-1.1 0.47,0.75 0.91,-0.36 0.95,0.33 -0.83,0.78 -0.78,0.5 -0.77,0.52 -0.7,0.02 -0.69,0.03
m 1.4,7.1 -0.98,0.55 -0.68,-0.72 -0.9,-0.54 -0.92,-0.54 0.05,-0.97 0.66,-1.08 0.63,-0.2 0.62,-0.21 0.96,0.16 0.58,0.5 0.27,-0.89 1.06,-0.35
h 0.64
l 0.64,-0.02 0.52,0.29 0.51,0.28 0.69,0.47 0.03,0.46 0.66,-0.05 -0.17,0.96 -0.79,0.15 -0.78,0.15 -0.76,0.66 -0.68,0.68 -0.93,0.12 -0.93,0.13
m 8.99,6.72 -0.1,0.9 -0.2,0.78 -0.6,0.82 -0.7,0.22 -0.67,-0.25 -0.67,-0.25 -0.7,-0.75 -0.65,-0.2 0.15,0.85 -0.88,-0.26 -0.9,-0.26 -0.84,-0.5 -0.57,-0.07 -0.57,-0.07 -0.57,-0.07 -0.58,-0.07 -0.51,-0.9 -0.57,-0.2 -0.3,-1.45 -0.35,0.74 -0.49,-0.28 -0.67,0.32 -0.68,0.32 -0.93,-0.37 -0.77,-0.74 -1.06,-0.13 -0.78,-0.72 -0.63,0.16 0.07,1.01 -0.67,0.11 -0.79,-0.72 -0.79,-0.73 0.46,-0.86 0.45,-0.87 -0.15,-1.84 0.5,-0.94 0.4,-1.19 0.66,-0.01 0.66,-0.01 0.36,1.13 1.01,-0.12 1.01,-0.11 0.12,0.35 -0.73,0.75 -0.72,0.76 0.94,-0.39 0.94,-0.39 0.69,-0.86 0.96,0.47 0.48,0.93 0.92,0.16 0.6,-0.33 0.59,-0.33 0.7,-0.07 0.72,-0.06 -0.33,1.24 -0.35,0.36 0.9,0.7 0.45,-1 0.1,-1.55 1.1,-0.67 0.58,-0.1 0.58,-0.11 0.9,-0.35 0.93,0.07 0.35,0.63 -0.02,0.44 0.27,0.76 0.9,0.6 -0.21,0.42 -0.82,0.34 0.72,0.16 0.7,0.15 0.4,0.45 0.24,0.58 0.06,0.97 -0.3,0.2 0.48,0.87 -0.13,0.71 -0.1,0.72
m -246.7,263.73 0.16,0.7 0.16,0.7 0.08,0.54 0.09,0.53 0.09,0.53 0.1,0.53 0.38,0.69 0.4,0.68 0.39,0.68 0.4,0.68 0.47,0.53 0.48,0.53 0.48,0.53 0.48,0.53 -0.89,0.46 -0.7,-0.5 -0.69,-0.49 -0.28,-0.64 -0.28,-0.64 -0.65,0.44 -0.67,-0.17 -0.67,-0.17 -0.67,-0.61 -0.78,-0.82 -0.45,-0.71 -0.44,-0.72 -0.69,-0.72 -0.68,-0.74 -0.38,-0.64 -0.37,-0.64 -0.37,-0.64 -0.37,-0.64 -0.3,-0.57 -0.29,-0.57 -0.29,-0.57 -0.28,-0.57 -0.19,-0.5 -0.18,-0.5 -0.17,-0.5 -0.18,-0.5 -0.17,-0.5 -0.18,-0.49 -0.17,-0.5 -0.16,-0.5 0.5,0.7 0.52,0.68 0.4,0.76 0.4,0.76 0.4,0.75 0.42,0.75 0.41,0.57 0.41,0.56 0.42,0.57 0.42,0.56 0.9,-0.4 0.77,-1.07 0.75,0.1 0.75,0.1 0.48,0.54 0.48,0.55
m 453.29,-180.12 0.02,0.72 0.02,0.73 0.01,0.72 0.02,0.72 -1.6,1.06 -0.93,-0.91 -0.94,-0.92 -0.2,-1.01 -0.22,-1.02 0.14,-0.73 0.15,-0.73 0.14,-0.74 0.14,-0.73 0.65,-1.17 1.08,0.36 0.26,0.95 0.25,0.94 0.5,0.88 0.5,0.88
m -370.33,-20.24 0.27,1 0.27,1.01 0.32,0.86 0.33,0.86
v 1.36
l 0.02,0.69
v 0.68
l -0.24,0.8 -0.24,0.81 1.14,1.76 -0.2,1.24 -0.14,0.78 -0.14,0.78 -0.14,0.77 -0.13,0.78 -0.19,1.15 -0.18,1.14 0.38,0.67 0.1,0.84 0.1,0.85 -0.7,0.46 0.36,0.82 0.36,0.81 -0.01,1.24
v 1.24
l -0.64,0.26 -1.03,-1.12 -0.86,-1.3 -0.3,-0.81 -0.3,-0.82 -0.87,-1.41 -0.87,-1.42 0.97,0.1 0.97,0.12 0.07,-0.72 0.08,-0.7 -0.26,-0.77 -0.25,-0.75 0.15,-0.68 0.16,-0.68 0.52,-0.86 0.54,-0.87 -0.64,-1.12 -0.13,-1.29 -0.12,-1.28 0.22,-1.09 -0.2,-0.78 -0.2,-0.79 -0.19,-0.78 -0.19,-0.78 0.17,-1.17 0.92,0.29 -0.35,-1.12 -0.34,-1.12 -0.92,-0.24 -0.92,-0.24 -0.36,-0.87 -0.71,0.19 -0.66,-0.87 -0.1,-1.13 1.17,0.51 1.06,-0.27 0.9,0.53 0.87,0.71 0.83,1.45 0.47,0.3
m 215.1,87.92 0.14,-0.04 0.18,-0.77 1.44,-0.3 1.66,-1.3 -1.14,1.56 0.23,0.5 0.1,0.23 -1.88,1.66 -1.03,-0.16 -0.63,-1.06 0.93,-0.32
M 295,200.07
l -0.97,2.32 -1.4,-1.76 -0.11,-1.23 1.05,-0.41 1.05,-0.41 0.38,1.5
m 346.14,-56.56 0.59,0.38 0.59,0.39 0.59,1.31 0.58,1.31 -0.2,0.8 -0.19,0.78 -0.97,0.31 -0.63,-0.9 -0.63,-0.91 -0.22,-1.08 -0.23,-1.08 0.87,-0.16 -0.15,-1.15
m -1.58,-8.46 0.11,-0.55 0.6,1.22 0.6,1.21 0.06,0.39 -0.04,1.07 -0.04,1.08 -0.09,1 -0.09,0.98 -0.58,-0.74 -0.58,-0.74
v -0.88
l 0.02,-0.88 0.21,-0.77 -0.09,-1.2 -0.09,-1.19
m -592.85,241.69 1.16,0.2 1.15,0.18 0.6,0.79 0.61,0.78 0.63,0.01 0.64,0.01 0.24,0.47 0.25,0.48 0.26,0.47 0.25,0.47 -0.74,0.26 -0.6,-0.29 -0.6,-0.29 -0.6,-0.3 -0.6,-0.29 -0.25,-0.62 -0.24,-0.61 -0.83,-0.11 -0.82,-0.11 -0.26,-0.75 -0.25,-0.75
m 240.91,-137.55 -0.76,2.21 -0.8,-0.68 -0.27,-2.03 0.45,-1.05 1.25,-1 0.13,2.55
m -12.37,-51.38 -1.06,1.33 -1.06,1.33
h 1.4
l 1.42,0.41 -0.87,2.23 -0.9,1.1 -0.9,1.11 1.36,0.58 0.04,0.32 0.5,3.7 0.87,0.7 0.24,3.49 0.2,1.23 1.69,0.95 -0.5,1.81 -0.91,0.68 0.34,1.63 -1.64,1.2 -2.04,-0.51 -1.39,0.06 -1.38,0.05 -0.6,-0.76 -1.3,1.05 -1.34,-0.74 -1.34,0.76 -0.67,-0.83 1.47,-1.15 1.48,-1.15 1.48,-0.22 -2.22,-1.18 -0.14,-1.26 1.76,-0.4 -0.42,-1.79 0.73,-1.77 2.06,0.88 0.59,-1.6 -0.53,-2.02 -0.01,-0.04 -1.55,-1.01 -0.13,-0.87 0.82,-1.11 -0.24,-0.92 -1.08,1.1 0.32,-1.37 0.33,-1.38 -0.27,-1.65 0.64,-1.38 0.64,-1.37 0.8,-0.99 0.8,-0.98 0.94,0.54 1.57,0.21
m 39.6,70.28 1.17,0.88 1.55,-0.35 1.52,0.03 -0.01,0.51 1.06,-0.5 -0.17,0.9 -2.9,0.62 -0.01,-0.5 -2.5,-0.3 0.29,-1.29
M 282.72,112.75
h 0.97
l 0.97,0.02 0.51,0.98 1.03,-0.33 0.86,0.64 0.7,0.96 0.7,0.96 0.2,2.98 -1.13,0.5 -1.12,-0.74 -0.78,-0.55 -0.78,-0.55 -0.22,0.48 0.57,0.33 0.56,0.33 0.23,1.46 1.07,-0.24 -0.33,1 -0.65,0.53 -0.64,0.54 0.7,-0.14 0.7,-0.13 1.06,0.03 1.05,0.03 0.73,1.02 -0.34,1.17 -1.2,0.47 -1.2,0.48 -0.52,0.44 -0.72,-0.18 -0.72,-0.17 0.8,0.68 -0.76,0.73 -0.76,0.73 -0.65,0.67 -0.64,0.67 -0.82,1.34 -0.82,1.35 -0.37,1.95 -0.83,-0.4 -1.28,0.22 0.14,1.9 -0.56,1.08 -0.56,1.08 -0.72,-0.16 -0.26,1.29 -0.26,1.29 -0.7,-0.34 -0.7,-0.33 0.08,1.44 -0.72,0.74 -1.08,-0.2 -0.85,-0.58 -0.27,2.17 -0.67,1.09 -0.6,-1.88 -0.75,0.4 0.46,1.22 -0.08,2.08 -0.47,1.08 -0.46,1.07 -0.77,-0.19 -0.77,-0.18 0.07,-1.32 0.1,-1.98 -0.87,1.79 -0.81,0.32 -0.82,0.34 0.88,0.72 0.88,0.73 0.9,0.8 -0.82,0.2 -0.82,0.18 -0.82,0.2 -0.81,0.2 -0.82,0.08 -0.8,0.1 -0.82,0.1 -0.81,0.09 -0.67,-0.24 -0.67,-0.24 -0.68,-0.24 -0.67,-0.23 -0.78,-0.68 -0.71,0.1 -0.71,0.1 -0.73,0.37 -0.73,0.36 -0.73,0.36 -0.72,0.37
h -1.43
l -0.71,0.01
h -0.72
l -0.56,-0.41 -0.71,-0.24 -0.7,-0.24 -0.74,-0.3 -0.72,-0.31 -0.92,0.31 -0.91,0.32 -0.72,0.73 -0.7,0.75 -0.85,0.48 -0.84,0.49 -1.4,0.12 -1.4,0.14 -0.65,1 -0.65,1.02 -1,0.67 -1.02,0.67 -1.19,0.8 -1.19,0.8 -1.22,-1.25 0.3,-1.57 0.3,-1.57 -1.4,-2 0.26,-1.03 0.28,-1.02 0.86,-1.28 0.88,-1.28 0.44,-1 0.45,-1.01 0.44,-1 0.45,-1 0.61,-0.85 0.62,-0.83 1,-0.87 1,-0.87 0.75,-1.45 0.75,-1.44 0.95,-0.47 0.96,-0.47 0.54,-1.19 0.8,-0.28 0.8,-0.28 0.81,-0.28 0.8,-0.28 0.78,0.3 0.77,0.3 1.15,-0.41 0.96,-0.6 0.96,-0.58 -0.66,-0.14 -0.65,-0.14 -0.58,-0.18 -0.7,-0.48 0.3,-1.51 0.82,-0.57 0.8,-0.56 0.73,-0.27 0.71,-0.27 0.38,0.68 0.15,1.96 0.42,-1.16 0.43,-1.15 0.51,-1.2 -0.68,-0.51 0.34,-1 0.66,-0.15 0.67,-0.15 0.66,-0.15 0.66,-0.14 0.73,-0.98 0.74,-0.77 0.75,-0.77 0.59,-0.57 0.58,-0.56 0.59,-0.57 0.59,-0.56 0.69,-1.31 1.07,-0.53 0.49,-1.17 0.5,-1.16 -0.16,-1.36 -0.47,-1.59 -0.47,-1.44 0.76,-0.98 0.8,-0.76 0.79,-0.76 0.51,0.65 0.52,0.65 0.32,1.1 0.18,-1.31 0.19,-1.3 0.5,-0.76 0.51,-0.76 1.06,-0.14 0.74,0.83 0.74,0.83 0.79,0.72 0.78,0.72 1,-0.13 0.76,-1.5 0.56,0.05 0.56,0.05 1.06,0.43 1.07,0.45 0.4,0.47 1.15,-0.55 0.91,0.61 0.73,0.9 0.4,1.03 -0.63,0.75 0.87,0.07 0.87,0.08 -0.52,1.28 0.06,0.56 -0.37,1.17 0.82,-1.58 1.03,-0.6
m -161.62,85.9 0.5,-0.13 0.48,0.81 0.48,0.81 0.12,0.9 0.12,0.89 0.39,0.48 -0.47,1.16 0.75,1.07 -0.63,0.6 0.53,0.99 -0.03,0.9 -0.02,0.92 -1.29,0.16 -0.11,-0.73 -0.11,-0.73 -0.7,-0.84 -0.34,-0.78 -0.6,0.04 -0.62,-0.65 0.28,-0.86 -0.71,-0.36 -0.94,0.35 -0.94,0.35 -0.02,-0.88 0.51,-0.75 -0.25,-0.88 -0.25,-0.88 -0.73,-0.83 -0.3,-0.72 -0.3,-0.71 -0.96,-0.57
v -1.82
l 0.77,-0.53 0.41,1.12 0.41,1.12 0.38,0.88 0.39,0.88 0.9,0.25 0.16,-0.95 0.16,-0.96 0.8,-0.83 -0.22,-0.83 -0.22,-0.82 0.84,-0.15 0.64,1.37 0.37,1.07 0.37,1.07
m 435.58,36.01 -0.64,0.94 -1.59,0.53 -1.59,0.54 0.3,-0.62 0.3,-0.62 0.3,-0.62 0.3,-0.62 1.3,-0.36 1,0.02 0.32,0.81
m -7.76,0.66 0.99,-0.1 0.43,-0.77 0.43,-0.76 1.05,0.52 -0.38,0.74 -0.39,0.75 -0.39,0.74 -0.39,0.74 -0.46,0.9 -0.47,0.91 -0.9,1.12 -0.14,-1.07 -0.15,-1.08 0.44,-0.6 0.44,-0.6 -0.05,-0.72 -0.06,-0.72
m 7.72,-10.71 0.35,0.86 0.34,0.85 -0.45,0.98 -0.45,0.98 -0.46,0.98 -0.46,0.98 -0.57,0.63 -0.56,0.64 -0.57,0.63 -0.57,0.63 -0.57,-0.9 0.45,-1.11 0.45,-1.1 1.44,-0.6 0.44,-0.8 0.45,-0.81 0.19,-0.71 0.18,-0.71 0.19,-0.71 0.18,-0.71
m -25.32,27.34 0.88,-0.96 0.87,-0.97 0.88,-0.96 0.86,-0.97 -0.1,-0.73 -0.11,-0.73 0.97,-0.7 0.97,-0.7 0.96,-0.7 0.97,-0.7 1.56,0.8 0.7,-0.7 0.7,-0.69 0.7,-0.69 0.7,-0.7 1.46,-0.57 1.46,-0.59 -0.33,0.84 -0.34,0.85 -0.34,0.84 -0.34,0.84 -1.23,0.68 -1.22,0.69 -0.75,1 -0.76,1 -0.94,1 -0.95,1.02 -0.94,0.78 -0.94,0.78 -1.29,0.77 -1.29,0.78 -0.72,0.66 -0.72,0.66 -0.57,1.19 -0.95,0.72 -0.97,0.72 -0.96,0.72 -0.97,0.71 -0.9,-0.67 -0.89,0.89 -0.89,0.88
v -0.94
l -0.02,-0.93 -0.02,-0.94 -0.02,-0.94 1.13,-1.21 1.13,-1.22 1.98,-0.78 0.84,-0.7 0.75,0.57
m 37.38,-57.83 0.2,0.74 0.2,0.74 0.19,0.73 0.2,0.74 -0.83,-0.9 -0.82,-0.9 -0.27,-0.67 -0.26,-0.67 -0.23,-0.69 -0.24,-0.68 0.87,0.28 0.5,0.64 0.49,0.64
m -14.48,9.35 0.1,0.83 0.08,0.83 -1.24,1.06 -1.07,-0.65 0.6,-1.18 0.58,-1.18 0.95,0.29
m 3.14,-8.1 1,0.58 1,0.59 -1.84,0.8 -0.57,0.83 -0.59,0.82 -0.27,0.71 -0.27,0.71 -0.46,0.73 -0.46,0.72 -0.4,-0.96 -0.4,-0.96 0.34,-0.71 0.35,-0.72 0.35,-0.72 0.35,-0.71 0.94,-0.85 0.93,-0.86
m -15.4,0.42 0.28,1.06 0.28,1.06 0.27,1.06 0.26,1.06 -0.27,1.08 -0.27,1.08 -0.79,0.83 -0.8,0.83 -0.5,0.96 -0.5,0.96 -0.51,0.95 -0.52,0.96 -0.43,1.14 -0.45,1.14 0.62,1.08 0.61,1.07 1.44,0.1 1.43,0.1 -0.06,-1.15 -0.07,-1.15 0.23,-0.62 0.23,-0.62 0.22,-0.62 0.23,-0.62 0.22,-0.62 0.21,-0.62 0.22,-0.62 0.21,-0.62 0.4,0.65 0.4,0.65 -0.84,0.61 0.27,1.2 0.28,1.2 -0.11,0.73 -0.12,0.73 -0.11,0.72 -0.12,0.72 1.83,0.54 1.82,0.54 0.19,0.62 0.19,0.62 1.66,0.46 1.65,0.45 0.59,0.83 0.57,0.83 -0.11,0.94 -0.13,0.94 -1.17,-0.02 -0.18,-0.77 -0.2,-0.77 -0.19,-0.77 -0.2,-0.77 -0.16,0.77 -0.18,0.78 -0.17,0.77 -0.18,0.78 -0.84,-0.15 -0.25,-0.62 -0.25,-0.62 -2.05,0.13 -0.41,-0.64 -0.41,-0.64 -0.41,-0.64 -0.42,-0.64 -0.19,1.1 -0.2,1.1 0.55,0.67 0.55,0.67 0.54,0.67 0.54,0.67 0.63,0.86 0.63,0.86 0.63,0.87 0.62,0.86 -0.35,0.86 -0.35,0.86 -1.13,0.2 -0.28,-0.71 -0.28,-0.72 -0.28,-0.72 -0.3,-0.72 -0.93,-1.02 -0.95,-1.01 -0.62,0.9 -0.82,-0.5 -0.83,-0.5 -0.13,-0.63 -0.14,-0.62 -0.14,-0.63 -0.15,-0.62 -0.6,-1.13 -0.62,-1.12 -0.51,-1.19 -0.52,-1.19 -0.53,-1.19 -0.54,-1.19 -0.24,-0.73 -0.25,-0.72 -0.08,-0.93 -0.07,-0.92 -0.09,-0.92 -0.08,-0.92 1.57,-1.03 0.93,-1.23 0.92,-1.24 0.33,-0.67 0.34,-0.67 0.32,-0.66 0.33,-0.67 -0.07,-1 -0.08,-1 -0.08,-1 -0.1,-1 0.67,0.15
m 4.46,-7.1 0.92,1.15 0.91,1.15 -0.78,0.93 0.56,0.93 0.55,0.93 1.58,0.4 -0.07,0.93 -0.9,-0.34 -0.89,-0.34 -0.75,-0.63 -0.75,-0.63 -0.76,-0.63 -0.76,-0.62 -0.75,-1.22 -0.75,-1.22 -0.21,-0.83 -0.22,-0.83 0.63,0.6 0.63,0.59 0.82,-1.13 1,0.8
m -21.43,67 -0.99,1.2 -1,1.2 -2.69,-0.22 -1.74,0.39 -1.74,0.37 -1.63,-0.54 -2.53,-0.35 -1.96,-0.74 -3.37,-1.73 -2.8,-0.14 -1.75,-1.43 -1.8,-1.08 -2.54,0.37 -2.19,-0.95 -2.18,0.23 -3.51,-0.48 -0.9,-1.03 1.24,-1.2 0.77,-0.69 0.77,-0.67 0.77,-0.68 0.77,-0.68 3.03,0.47
h 2.39
l 1.6,-0.16 3.28,0.56 0.91,-1.05 0.91,-1.05 2.5,-0.15 2.27,0.76 2.02,-0.52 0.25,1.39 0.24,1.39 1.53,-0.4 0.67,-0.7 1.32,1.3 1.43,0.6 0.71,-0.68 0.72,-0.68 1.77,0.48 0.34,0.87 0.34,0.88 0.34,0.88 0.33,0.88 0.53,0.94 0.53,0.95 0.52,0.95 0.52,0.94
m -258.35,-59.9 1.17,0.28 0.99,2.23 -1.27,1.7 -0.3,2.1 -0.89,1.08 -0.88,1.08 -1.53,0.38 -1.52,0.37 -1.92,-1.2 1.02,-1.23 1.03,-1.24 0.08,-1.56 0.08,-1.56 1.26,-0.75 1.27,-0.74 1.41,-0.94
m 3.42,-34.21 -0.97,1.6 0.28,2.33 -1.07,0.7 -1.06,0.72 -0.92,0.07 -0.91,0.08 -0.91,0.08 -0.92,0.09
h -1.07
l -1.08,-1.13 -1.1,-1.23 -1.1,-1.22 0.77,-0.27 0.77,-0.27 -1.26,-2.53 0.93,0.28 0.92,0.29 0.39,-0.77 -0.74,-0.9 -0.75,-0.9 0.78,-0.62 0.77,-0.6 0.75,0.23 0.75,0.25 0.4,2.57 1.03,-0.3 1.04,-0.28 0.74,1.37 1.07,-0.3 1.06,-0.3 1.4,0.96
m 28.4,89.8 -0.74,2.3 0.28,0.93 -0.43,1.5 -1.5,-1.15 -1,-0.35 -2.7,-1.62 0.32,-1.5 2.28,0.37 2,-0.25 1.48,-0.23
m -11.66,-9.46 0.97,2.2 -0.52,3.86 -0.85,-0.27 -0.85,0.9 -0.67,-0.86 0.2,-3.55 -0.3,-1.73 1.02,0.26 1,-0.8
m -175.1,-52.88 0.28,0.82 0.28,0.81 0.04,0.83 0.04,0.83 -0.39,0.95 -0.84,-1.45 -0.7,-0.28 -0.14,-0.78 -0.14,-0.78 0.08,-1.01 0.08,-1.02 0.64,-0.23 0.6,0.74 0.18,0.57
m 346.21,-82.39 1.06,0.21 1.01,1.05 1,1.06 -0.94,0.44 0.4,0.73 0.4,0.74 0.93,0.72 0.93,0.73 -0.82,1.01 -0.74,-0.36 -0.74,-0.37 -0.95,-1.04 -0.97,-1.04 0.28,-1.08 -0.69,-0.75 -0.7,-0.74 0.54,-1.3
m -12.12,-17.43 0.71,0.41 0.72,0.42 0.72,0.43 0.71,0.42 0.8,0.1 0.79,0.1 0.65,0.5 0.65,0.49 0.65,0.49 0.65,0.5 0.53,0.83 0.53,0.85 0.52,0.84 0.52,0.85 0.21,0.98 0.21,0.98 0.2,0.99 0.2,0.98 0.52,0.58 0.52,0.59 0.51,0.58 0.51,0.59 0.51,0.58 0.5,0.6 0.51,0.58 0.5,0.6 -0.54,0.46 -0.53,0.47 -1.19,-0.48 -1.19,-0.46 0.27,1.02 0.26,1.02 0.26,1.03 0.25,1.02 0.41,0.82 0.41,0.81 0.4,0.82 0.41,0.81 0.08,1.3 0.07,1.28 0.55,-0.28 0.55,-0.28 0.55,-0.28 0.55,-0.27 0.66,0.5 0.66,0.52 0.66,0.5 0.65,0.52 0.66,0.52 0.65,0.52 0.65,0.51 0.65,0.53 0.64,1.05 0.63,1.06 -0.6,0.22 -0.6,0.23 -0.67,-0.5 -0.68,-0.5 -0.69,-0.5 -0.68,-0.49 -0.9,0.93 -1.03,-0.1 -1.04,-0.08 -0.46,-1.27 -0.48,-1.27 -0.96,-1.04 -0.98,-1.04 -0.41,-0.73 -0.42,-0.74 -0.43,-0.73 -0.42,-0.73 -0.55,-0.64 -0.56,-0.64 -0.56,-0.63 -0.56,-0.63 -0.32,-1.18 -0.34,-1.17 -0.34,-1.17 -0.35,-1.17 0.37,-2.03 -0.75,-0.57 -0.75,-0.56 -0.76,-0.57 -0.75,-0.56 -0.76,-0.55 -0.76,-0.56 -0.77,-0.55 -0.76,-0.55 0.64,-0.42 0.65,-0.42 -0.48,-0.54 -0.48,-0.54 -0.49,-0.53 -0.49,-0.54 -0.48,-0.53 -0.5,-0.53 -0.49,-0.53 -0.5,-0.53 -0.77,-0.81 -0.78,-0.81 -1.09,-0.65 -1.09,-0.65 -1.1,-0.64 -1.09,-0.63 -0.9,-0.2 -0.9,-0.18 -0.9,-0.19 -0.9,-0.18 -1.17,-0.72 -1.17,-0.72 -0.63,-1.14 -0.65,-1.14 1.06,0.02 1.06,0.03 1.06,0.04 1.07,0.04 1.37,0.4 1.37,0.42 0.98,0.73 0.98,0.72 0.98,0.74 0.97,0.73 0.86,0.26 0.86,0.27 0.86,0.26 0.87,0.28
m -25.47,-11.97 0.13,-1.2 -1,-0.8 -1.01,-0.8 0.88,0.06 0.88,0.06 0.89,0.07 0.89,0.07 0.54,0.75 0.54,0.76 0.54,0.76 0.53,0.76 1,0.6 1,0.62 1,0.6 1,0.62 -0.3,0.64 -0.28,0.63 -0.28,0.64 -0.28,0.64 1,0.48 0.99,0.5 0.99,0.5 0.99,0.5 0.37,1.1 0.37,1.11 -0.79,-0.15 -0.8,-0.15 -0.78,-0.15 -0.79,-0.14 -0.7,-0.4 -0.71,-0.4 -0.7,-0.4 -0.72,-0.4 -0.44,-1.05 -0.46,-1.05 -1.18,-0.4 -1.18,-0.39 -1.18,-0.39 -1.18,-0.37 -1.37,-0.54 -1.38,-0.53 0.62,-0.4 0.62,-0.38 0.62,-0.38 0.63,-0.37 0.25,-0.62 0.24,-0.61
m 40.23,194.87 0.47,1.4 0.47,1.41 -0.27,0.73 -0.28,0.73 -0.79,1.08 -0.8,1.08 -1.93,-1.08 -1.02,-1.6 -1.03,-1.59 -0.24,-1.2 -0.25,-1.2 -0.26,-1.2 -0.25,-1.19 2.1,0.1 1.81,0.88 2.27,1.65
m -66.9,100.2 0.45,0.34 0.46,0.34 0.48,0.64 0.48,0.64 0.45,1.34 0.45,1.33 0.47,0.39 0.46,0.38 -0.13,1.28 -0.42,0.92 -0.6,-0.47 -0.6,-0.48 -0.47,0.95 0.4,0.76 0.42,0.75 -0.11,1.1 -0.76,0.9 0.1,2.07 -0.2,0.8 -0.2,0.8 -0.2,0.81 -0.2,0.8 -0.27,0.95 -0.26,0.95 -0.26,0.95 -0.27,0.95 -0.32,1.27 -0.32,1.28 -0.32,1.27 -0.33,1.26 -0.19,0.9 -0.18,0.9 -0.18,0.89 -0.19,0.89 -0.25,0.78 -0.26,0.78 -0.26,0.78 -0.26,0.78 -1.24,0.78 -1.25,0.78 -0.65,0.5 -0.66,0.51 -0.66,0.5 -0.66,0.51 -0.95,0.09 -0.95,0.07 -0.65,0.05 -0.65,0.05 -0.65,0.05 -0.64,0.04 -0.51,-0.42 -0.5,-0.42 -0.22,-0.94 -0.2,-0.96 -0.33,-0.34 -0.33,-0.34 -0.32,-0.35 -0.32,-0.35 -0.22,-0.76 -0.23,-0.77 0.2,-0.93 0.19,-0.93 0.68,-0.46 0.69,-0.47 -0.07,-0.77 0.65,-1.16 0.63,-1.16 0.12,-1.59 -0.4,-0.41 -0.42,-0.42 -0.35,-0.63 -0.36,-0.64 -0.23,-1.04 -0.23,-1.05 0.46,-0.86 0.45,-0.87 0.26,-1.68 0.74,-0.33 0.73,-0.33 0.8,-0.57 0.8,-0.57 1.06,-0.87 1.3,-0.56 0.77,-1.02 0.76,-1.03 0.57,-0.62 0.56,-0.62 0.56,-0.62 0.56,-0.62 0.37,-0.8 0.36,-0.78 -0.54,-0.87 1.29,-0.23 0.7,-1.18 0.69,-1.19 -0.14,-1.49 0.4,-0.75 0.41,-0.75 0.57,0.3 0.58,0.31
m 133.85,-166.6 0.26,0.85 0.25,0.85 0.25,0.85 0.25,0.85 1.4,0.31 1.38,0.32 0.32,0.74 0.32,0.75 1.63,-0.14 1.62,-0.13 -0.34,0.73 -0.35,0.72 -0.35,0.73 -0.35,0.72 0.4,1.19 0.38,1.19 0.85,1.04 0.84,1.04 -0.04,0.94 -0.04,0.94 -0.05,0.94 -0.06,0.93 0.42,0.62 0.42,0.62 0.42,0.61 0.41,0.62 0.5,1.13 0.5,1.14 0.49,1.13 0.47,1.14 -0.8,-0.54 -0.26,0.89 -0.26,0.88 -0.27,0.9 -0.27,0.88 -1.6,-0.62 -0.61,0.7 -0.62,0.7 -1.3,0.3 -0.34,0.87 -0.34,0.85 -0.34,0.86 -0.35,0.85 -1.35,-0.37 -0.5,0.77 -0.5,0.77 -0.77,0.75 -0.77,0.75 -0.58,-0.72 -0.58,-0.72 -0.59,-0.72 -0.59,-0.72 -1.25,0.4 -2.14,-1 -0.8,-0.89 -0.82,-0.89 -0.65,-1.22 -0.67,-1.22 -0.03,-0.72 -0.04,-0.7 -0.04,-0.72 -0.04,-0.71 1.72,-0.78 0.44,-1.05 0.43,-1.06 -0.57,-1.22 -0.58,-1.22 0.16,-0.68 0.15,-0.7 0.35,-0.77 0.35,-0.78 0.34,-0.78 0.34,-0.78 -0.1,-0.86 -0.1,-0.86 -0.1,-0.86 -0.11,-0.85 -0.12,-0.65 -0.12,-0.64 -0.12,-0.64 -0.13,-0.64 -0.08,-0.88 -0.08,-0.87 0.03,-0.8 0.02,-0.78 0.02,-0.79 0.02,-0.79 -0.09,-0.83 -0.09,-0.83 -0.09,-0.84 -0.1,-0.83 -0.22,-0.74 -0.23,-0.73 -0.23,-0.74 -0.24,-0.74 0.49,-0.9 1.66,0.04 0.93,0.91 1.38,-0.8 1.62,-1.16 0.71,1.1 -0.36,0.8 -0.36,0.8 1.2,0.76 -0.13,1.22 -0.14,1.23
m 107.65,-26.22 1.14,0.52 1.12,0.52 0.79,0.48 0.78,0.48
v 0.75
l 0.01,0.75 -1.21,-0.17 -0.89,-0.29 -0.89,-0.28 -0.92,-0.47 -0.93,-0.48 -1.11,-0.77 -1.13,-0.76 -0.87,-1.04 0.54,-0.67 0.69,0.17 0.69,0.17 1.23,0.55 0.96,0.54
m -330.3,-43.56 -1.1,1.28 -1.04,-0.57 0.33,-0.75 -0.39,-0.87 1.04,-0.66 0.32,1.03 0.85,0.54
m -3.67,-4.9 0.85,1 0.85,1 -0.61,0.58 -0.6,0.6 -0.23,2.07 -0.47,0.54 -0.25,2.33 -0.71,0.11 -0.6,-0.87 -0.61,-0.88 0.54,-0.98 -0.78,-0.84 -0.86,-2.43 -0.19,-2.21 0.67,-0.46 0.66,-0.45 0.2,1 0.68,-0.02 0.2,-0.96 0.66,-0.09 0.6,0.97
m 3.07,-2.24 1.02,0.83 -0.44,1.6 -0.67,0.24 -0.67,0.26 -0.72,-0.18 -0.72,-0.17 -0.13,-0.77 -0.66,-0.02 -0.52,-1.27 0.66,-0.41 0.65,-0.42 0.68,0.62 0.36,-0.87 1.16,0.56
M 670,245.39
l 0.5,1.37 0.4,-1.02 0.4,-1.03 0.58,1.38 0.18,1.59 -0.15,1 -0.16,1.02 -0.29,1.62 -0.3,1.62 -0.25,0.95 -0.27,0.94 0.69,1.54 -1.03,0.6 -0.49,1.02 -0.5,1.02 -0.05,1.32 -0.05,1.32 -0.1,1.04 -0.08,1.05 -0.1,1.04 -0.1,1.04 -0.43,1.12 -0.43,1.12 -0.55,1.42 -1.21,0.62 -0.97,-0.7 -0.73,0.3 -0.73,0.31 -0.37,-1.2 0.2,-1.56 0.2,-1.58 0.32,-1.15 0.3,-1.16 0.32,-1.17 0.3,-1.16 0.79,-1.21 0.4,-1 0.4,-0.99 0.46,-1.3 0.46,-1.32 0.3,-1.2 0.28,-1.2 0.14,-1.56 0.12,-1.56 0.41,-1.25 -0.03,-1.1 -0.03,-1.1 0.38,-1.13 0.37,-1.15 0.5,1.43
m -0.7,-19.18 0.46,0.85 0.46,0.85 0.46,0.85 0.45,0.85 -0.12,-0.65 -0.12,-0.65 -0.13,-0.65 -0.12,-0.65 0.84,0.67 0.2,0.7 0.19,0.69 0.19,0.69 0.18,0.7 1.35,0.63 0.99,-0.17 0.27,-0.94 0.26,-0.94 0.79,0.1 0.06,0.9 0.06,0.9 0.06,0.9 0.05,0.9 -0.02,0.6 -0.03,0.62 -0.02,0.61 -0.03,0.61 -1.07,0.44 -0.1,0.67 -0.1,0.67 0.16,0.8 0.17,0.78 -0.12,0.82 -0.07,0.58 -0.08,0.58 -0.15,1.16 -0.2,1.47 -0.2,1.47 -0.44,1.03 -0.45,1.02 -0.34,-0.88 -0.63,-0.24 0.22,-1.77 0.21,-1.76 -0.35,-0.93 -0.35,-0.93 -1.7,-0.69 -0.07,-0.69 -0.08,-0.69 0.42,-0.94 0.4,-0.93 -0.05,-0.76 -0.06,-0.76 -0.06,-0.76 -0.07,-0.76 -0.12,-0.6 -0.13,-0.6 -0.12,-0.6 -0.13,-0.6 -0.27,-0.56 -0.26,-0.55 -0.27,-0.55 -0.27,-0.55 -0.1,-0.68 -0.5,-0.58 -0.5,-0.58 -0.47,-0.66 -0.47,-0.66 -0.47,-0.66 -0.47,-0.66 -0.31,-0.57 -0.31,-0.57 -0.32,-0.56 -0.32,-0.57 0.44,-0.64 0.65,0.8 0.65,0.8 1.32,0.3 0.3,0.78 0.3,0.78 0.29,0.78 0.28,0.79
m -141.66,-49.88 0.82,0.67 0.83,0.66 0.68,0.6 0.68,0.6 0.45,0.75 0.44,0.74 0.44,0.74 0.44,0.74 -1.34,-0.8 -1.35,-0.78 0.36,1.14 0.34,1.14 1,0.51 0.99,0.51 0.38,0.9 0.38,0.88 -1.25,0.65 -1.26,0.66 -0.95,-0.54 -0.95,-0.54 -0.37,-0.9 -0.38,-0.91 -1.7,0.33 0.3,0.85 0.3,0.84 -0.58,0.99 0.12,0.75 0.1,0.75 0.12,0.74 0.1,0.75 -0.81,-0.31 -0.36,-0.72 -0.36,-0.72 -0.36,-0.72 -0.36,-0.71 0.01,-1.05 0.01,-1.05 -0.15,-1.06 -0.15,-1.06 1.37,0.25 0.07,-1.2 0.05,-1.2 -0.43,-0.7 -0.45,-0.72 0.3,-0.84 0.3,-0.85 -0.93,-0.84 -0.94,-0.83 0.92,-0.39 0.92,-0.38 0.64,0.49 0.63,0.5 0.94,0.7
m -6.58,1.18 0.22,0.8 0.22,0.8 0.57,1.08 0.58,1.1 0.18,0.7 0.18,0.7 -1.09,-0.1 -1.09,-0.1 -0.4,-1.09 -0.4,-1.22 -0.67,-0.84 -0.67,-0.83 0.2,-0.7 0.18,-0.7 0.71,0.95 0.7,0.96 -0.38,-0.98 -0.4,-0.98 -0.4,-0.98 -0.4,-0.98 0.55,0.6 0.54,0.6 0.54,0.6 0.53,0.61
m -3.44,14.68 0.07,0.64 0.06,0.65 0.06,0.65 0.06,0.64 0.06,0.65 0.06,0.64 0.05,0.65 0.05,0.64 -0.22,-0.67 -0.22,-0.68 -0.22,-0.68 -0.23,-0.68 -0.12,-0.76 -0.12,-0.76 -0.13,-0.75 -0.13,-0.76 -0.2,-0.74 -0.22,-0.73 -0.2,-0.74 -0.23,-0.74 -0.4,-0.86 -0.41,-0.87 -0.41,-0.86 -0.42,-0.86 1,0.73 1,0.73 0.13,0.7 0.13,0.68 0.12,0.69 0.12,0.68 0.24,0.7 0.22,0.68 0.23,0.7 0.22,0.69
m -2.27,-13.56 1.28,-0.66 0.3,-0.74 0.28,-0.73 0.96,1 0.28,1.02 0.28,1.02 0.04,1.07 0.04,1.07 -1.1,-0.99 -0.55,-0.66 -0.56,-0.67 -1.25,-0.73
m 2.53,-8.96 0.74,0.47 0.74,0.48 0.74,0.47 0.73,0.48 -1.3,1.18 0.83,0.74 0.84,0.42 0.84,0.43 0.06,0.81 0.05,0.81 -0.85,-0.77 -0.85,-0.76 -0.4,0.57 -0.78,-0.51 -0.79,-0.51 0.7,-1.18 -0.92,-0.83 -1.18,-0.17 -1.18,-0.16 0.42,-1.08 0.43,-1.09 1.13,0.2
m -5.6,7.1 0.44,0.65 0.44,0.64 0.44,0.64 0.44,0.64 -0.78,-0.08 -0.79,-0.08 -1.12,-0.28 -1.12,-0.27 0.44,-0.93 0.44,-0.94 1.16,0.02
m -13.32,-11.48 1.17,-0.79 -0.43,-1.25 0.71,0.33 0.46,0.64 0.46,0.63 1.02,0.38 1.02,0.38 0.47,0.6 0.46,0.6 0.46,0.61 0.46,0.6 0.17,1.04 0.17,1.04 0.91,1.06 0.9,1.07 1.06,0.62 1.05,0.64 0.72,-0.97 0.09,-1.28 1.2,-0.82 1.18,-0.81 0.62,0.72 0.62,0.72 0.86,-0.21 0.51,0.64 0.52,0.64 -0.93,0.34 -0.92,0.34 -0.79,-0.16 -0.79,-0.17 0.33,0.71 0.33,0.7 -1,0.06 -0.99,0.06 -0.22,1.2 -0.24,1.21 -0.97,0.64 -0.92,-1.04 -0.33,-1.28 -0.8,0.17 0.73,1.1 -0.9,-0.09 -0.9,-0.08 -1.16,-0.63 -1.16,-1 -1.15,-1.02 1.13,-0.18 -0.91,-0.92 -0.93,-0.91 -0.92,-0.91 -0.93,-0.91 -0.49,-0.67 -0.49,-0.67 -0.5,-0.67 -0.49,-0.67 0.47,-1.38
m 91.4,-17.16 0.04,0.98 -0.7,-0.13 -0.7,-0.13 -1.04,-0.52 -1.05,-0.52 -1.13,-0.98 -0.57,-0.48 -0.57,-0.49 -0.16,-0.63 0.9,0.7 0.87,0.02 1.07,0.46 1.07,0.46
h 0.65
l 0.65,0.01 0.66,1.25
m -6.76,4.75 -0.1,0.74 -0.1,0.73 0.6,1.25 0.1,1.01 0.09,1.01 0.08,0.95 0.08,0.95 -0.46,1.22 -1.44,1 -1.2,0.46 -0.72,-1.13 1.14,-1.63 0.13,-0.75 0.13,-0.75 -0.56,-0.91 -0.57,-0.91 0.05,-0.41 0.74,0.7 0.73,0.7 0.14,-0.78 0.13,-0.78 -0.34,-0.85 -0.34,-0.86 -0.25,-1.2 -0.26,-1.22 -0.84,-0.78 -0.84,-0.78 0.4,-1.48 0.6,0.03 0.75,0.89 0.75,0.88 0.7,1.35 0.68,1.35
m -1.72,35.46 -1.36,-0.2 -1.36,-0.2 -0.77,0.83 -0.77,0.82 0.16,0.67 0.15,0.67 -0.34,0.71 -0.34,0.71 -0.35,0.7 -0.35,0.72 -0.3,-0.8 -0.3,-0.8 -0.3,-0.79 -0.3,-0.79 0.06,-1.07 0.05,-1.08 -0.65,-0.61 -0.65,-0.61 -0.66,-0.61 -0.65,-0.6 -1.17,-0.63 -1.18,-0.6 -1.95,1.01 -1.95,1.03 -0.53,0.8 -0.54,0.82 -1.8,0.45 -1.81,0.47 0.35,0.97 0.35,0.97 -0.24,1.09 -1.03,-0.45 -0.92,-1.13 -1.89,0.43 0.11,-0.84 0.1,-0.84 0.1,-0.84 0.1,-0.84 0.4,-0.78 0.4,-0.79 -0.67,-0.5 -0.39,0.83 -0.39,0.83 -0.4,0.83 -0.39,0.82 -0.85,-0.32 -0.86,-0.32 -0.68,0.78 -0.69,0.77 -1.52,-0.31 0.23,-0.92 0.23,-0.92 0.23,-0.92 0.22,-0.92 -0.1,-1 -0.09,-1 1.28,-1.32 1.26,-1.31 1,0.6 0.98,0.9 0.98,0.9 0.97,0.9 0.96,0.9 1.2,-0.38 1.2,-0.37 -0.37,-1.18 -0.38,-1.18 -0.39,-1.18 -0.39,-1.19 -0.06,-1.06 -0.07,-1.06 -0.07,-1.06 -0.08,-1.07 0.42,-1.03 0.4,-1.03 1.62,-1.05 1.54,-0.74 0.71,-0.98 0.71,-0.98 1.61,-1.06 1.61,-1.05 3.02,-2.67 0.94,-0.06 0.93,-0.06 0.87,0.09 0.87,0.09 0.8,0.69 0.8,0.69 1.5,-0.99 1.5,-0.98 0.77,0.52 0.76,0.52 -0.28,1.2 -0.3,1.21 0.92,0.75 0.9,0.75 1.2,-0.01
h 1.22
l 0.79,0.45 0.79,0.45 0.78,0.46 0.79,0.46 0.24,-0.68 0.23,-0.69 0.5,0.73 0.51,0.74 1.16,-1.17 0.15,1.25 1.02,-0.5 1.02,-0.48 0.57,1.15 -0.25,0.82 -0.25,0.82 -0.85,-0.27 -0.56,0.75 -0.56,0.75 -0.68,0.86 -0.7,0.86 -1.12,-0.14 -1.12,-0.12 -0.92,-0.21 -0.91,-0.21 -1.27,-0.75 -1.27,-0.73 -2.3,1.6 -0.05,0.67 -0.04,0.68 -0.05,0.68 -0.06,0.68 0.07,1.15 0.05,1.16 0.88,0.93 0.88,0.94 -0.02,0.68 -0.02,0.67 -0.02,0.68 -0.03,0.67 -0.96,0.72 -0.61,1.07 -0.62,1.06
m -0.04,-41.25 0.25,0.79 0.24,0.79 -0.88,-0.7 -0.88,-0.7 -0.62,-0.33 -0.63,-0.32 -0.62,0.04 -0.61,0.04 -0.8,0.03 -0.8,0.03 -0.67,0.42 -0.66,0.42 -0.24,-0.7 -0.24,-0.7 1.17,-0.45 0.85,-0.15 0.98,-0.27 0.73,0.16 0.73,0.17 0.58,0.04 0.59,0.05 0.77,0.67 0.76,0.67
m -455.84,65.27 0.56,1.22 -0.1,0.81 -0.84,0.07 -0.53,-0.77 -0.54,-0.76 -0.9,-1.1 0.73,-1.09 0.48,-0.04 0.56,0.83 0.58,0.83
m 273.5,-137.78 0.58,-0.15 0.57,-0.14 0.58,-0.15 0.59,-0.14 0.58,-0.13 0.59,-0.14 0.59,-0.13 0.6,-0.13 0.22,2.42 1.27,0.42 1.27,0.42 1.27,0.44 1.28,0.44 0.61,-0.31 0.62,-0.31 0.63,-0.3 0.63,-0.3 1.14,0.2 1.14,0.22 -0.34,0.26 -0.33,0.26 -0.33,0.27 -0.33,0.26 0.75,0.4 0.75,0.42 0.75,0.4 0.75,0.42 -0.64,-0.04 -0.64,-0.04 -0.64,-0.04 -0.64,-0.04 -0.8,-0.19 -0.8,-0.18 -0.8,-0.18 -0.8,-0.18 -0.84,-0.1 -0.83,-0.08 -0.83,-0.08 -0.83,-0.08 -1.28,-0.37 -1.28,-0.36 -1.06,-0.16 -1.05,-0.15 -1.05,-0.15 -1.04,-0.14 -0.65,0.15 -0.64,0.16 -0.64,0.15 -0.64,0.17 -1.06,-0.15 -1.06,-0.13 -1.06,-0.14 -1.05,-0.12 -1.06,-0.78 -1.06,-0.77 -0.54,0.26 -0.53,0.26 -0.78,-0.7 0.89,-0.14 0.88,-0.15 0.65,-0.09 0.66,-0.08 0.65,-0.09 0.66,-0.08 0.76,0.07 0.75,0.07 0.76,0.07 0.76,0.07 0.69,-0.1 0.69,-0.1 0.7,-0.08 0.7,-0.1
m -83.23,-18.27 0.54,0.14 0.53,0.15 -0.14,0.76 -0.77,0.23 -0.77,0.24 -0.16,0.05 -0.76,-0.28 -0.54,-0.55 -0.55,-0.55 0.19,-0.29 0.57,-0.1 0.58,-0.12 0.64,0.16 0.64,0.16
m 22.12,24.84 0.71,1.07 0.61,1.56 -0.05,0.17 -0.69,-0.19 -0.69,-0.18 -0.75,-0.8 0.3,-1.3 0.56,-0.33
m -7.7,-2.51 0.72,0.09 0.71,0.09 0.58,1.07 -0.04,1.58 -0.85,0.22 -0.5,-1.26 -0.3,-0.9 -0.32,-0.89
m 1.52,3.88 0.51,-0.08 0.52,-0.08 0.51,-0.07 0.52,-0.07 0.73,1.19 0.72,1.2 0.6,0.44 0.6,0.46 -0.46,0.88 -0.46,0.9 -0.95,0.07 -0.95,0.09 -0.9,-0.65 -0.4,-0.8 -0.42,-0.8 -0.09,-1.35 -0.08,-1.33
m 0.54,63.44 -0.27,0.5 -1.23,0.6 -1.24,0.62 -0.82,-0.98 -0.82,0.05 -0.81,0.05 -0.84,-1.3 0.38,-0.95 -0.8,-1.35
v -2.89
l -0.74,0.07 0.06,-3.06 -0.85,-0.98 0.32,-2.1 0.5,-2.78 0.58,-0.89 0.58,-0.88 0.01,-1.5 0.53,-1.1 1.06,0.5 0.35,0.93 -0.58,2.62 -0.58,2.37
v 3.5
l 0.37,1.47 0.37,1.47 0.26,1.5 0.27,1.5 0.7,0.97 0.69,0.96 1.27,0.54 1.28,0.54
m -0.66,-39.22 0.33,1.66 0.32,1.67 -0.84,-0.5 -0.84,-0.5 -0.84,-0.5 -0.84,-0.5 -0.25,-0.47 0.22,-0.33 0.82,-0.46 0.83,-0.46 1.1,0.4
m -17.6,17.88 -0.3,0.62 -0.23,0.38 0.17,0.44 -0.24,0.66 -0.73,-0.36 -0.18,-0.9 -0.88,0.37 0.5,-0.83 0.54,-0.35 0.44,0.63 -0.11,-0.71 0.1,-0.6 0.85,0.2 0.08,0.45
m 15.71,-15.62 0.13,1.2 -0.54,0.54 -0.54,0.55 -0.6,0.2 -0.61,0.2 -0.98,-0.22 -0.98,-0.2 -0.7,0.36 -0.72,-0.9 -0.73,-0.88 -0.37,-1.06 0.75,-0.18 0.74,-0.18 0.7,-0.07 0.68,-0.06 0.7,-0.07 0.69,-0.05 0.6,0.2 0.6,0.2 1.18,0.42
m 87,-36.28 -1.03,-0.73 -1.03,-0.72 -1.04,-0.72 -1.04,-0.7 -0.62,-0.78 -0.62,-0.77 -0.62,-0.77 -0.63,-0.76 0.8,0.4 0.8,0.4 0.8,0.4 0.8,0.4 0.43,0.54 0.44,0.54 0.43,0.54 0.43,0.55 0.43,0.54 0.42,0.54 0.43,0.55 0.42,0.55
m -7.84,-6.9 -0.67,-0.39 -0.67,-0.4 -0.67,-0.4 -0.67,-0.38 -0.5,-1.22 0.91,0.61 0.92,0.62 0.9,0.62 0.91,0.63 -0.46,0.32
m -23.16,-10.8 -0.58,-1.47 0.96,0.44 0.96,0.44 0.95,0.45 0.96,0.45 0.95,0.45 0.95,0.46 0.95,0.46 0.95,0.46 -0.88,-0.27 -0.89,-0.28 -0.88,-0.27 -0.88,-0.27 -0.88,-0.27 -0.88,-0.26 -0.88,-0.26 -0.88,-0.26
m 17.28,7.07 -1.07,-0.76 -1.08,-0.76 0.44,-0.41 1.13,0.72 1.13,0.73 -0.28,0.24 -0.27,0.24
m 202.21,84.7 0.6,0.32 0.6,0.32 -0.66,1.48 -1,-0.7 -1.01,-0.69 0.6,-0.22 0.59,-0.21 0.28,-0.3
m -2.8,0.57 -0.28,0.93 -0.81,0.99 -0.6,-0.08 -0.52,-0.76 -0.51,-0.77 1,-0.9 0.86,0.01 0.86,0.58
m -0.02,-2.8 0.38,1 -0.76,-0.37 -0.76,-0.36 -0.77,-0.36 -0.76,-0.36 -0.92,-0.82 -0.93,-0.82 0.28,-0.76 0.64,0.5 0.64,0.5 0.64,0.51 0.64,0.51 0.84,0.41 0.84,0.42
m -5.06,-0.43 0.6,0.6 -0.92,0.15 -0.91,0.15
h -0.73
l -0.72,0.01 -0.62,-0.14 -0.62,-0.14 -0.16,-0.68 1.04,-0.24 0.98,-0.14 0.98,-0.14 1.08,0.57
m -4.67,1.93
v 0.65
l -0.99,0.24 -0.73,-0.21 -0.73,-0.2 -0.43,-0.68 0.83,0.01 0.82,0.02 0.62,0.08 0.61,0.1
m -228.42,78.58 -0.34,-0.61 -0.04,-1.35 -0.68,-0.78 -2.25,0.06 -0.83,-1.05 -0.82,-1.03 -1.16,-0.25 -0.38,-0.87 1.65,-0.52 -0.7,-2.03 1.16,-1.13 1.52,-0.33 -0.4,-1.4 -0.4,-1.39 -0.98,-1.51 -1.46,0.94 -1.56,0.02 -1.3,2.1 -1.24,1.28 -0.13,1.97 -1.38,1.17 -0.32,1.79 -0.33,1.79 1.18,0.98 1.18,0.99 0.46,1.94 1.47,1.21 1.46,1.21 1.39,1.04 1.54,1.54 0.86,-0.26 0.78,0.48 -1.35,0.91 0.21,1.15 0.2,1.14 0.03,1.12 -0.44,0.95 0.49,1.35 1.23,1.77 1.91,-0.24 1.73,0.77 2.75,-0.83 2.55,-2.2 -0.07,-0.74 -1.05,-1.73 -0.42,-1.5 -0.41,-1.48 -1.7,-0.2 -0.27,-2.1 -1.2,0.45 -0.24,-1.24 -0.26,-1.25 1.85,-0.19 1.13,-1.68 -1.87,-0.95 -1.1,-1.29 -1.05,1.42 0.6,2.08 -1.2,-1.49
m 197.3,-1.45 0.06,0.82 0.07,0.82 0.06,0.82 0.06,0.82 -0.23,0.6 -0.24,0.6 -0.23,0.59 -0.24,0.59 -0.37,-0.05 -0.4,-1.06 -0.09,-0.61 -0.08,-0.62 -0.09,-0.6 -0.09,-0.62 0.2,-0.78 0.2,-0.78 0.2,-0.78 0.2,-0.78 -0.23,-0.85 0.21,-0.6 0.22,-0.6 0.2,-0.6 0.22,-0.61 0.46,-0.8 0.46,-0.79 0.22,-0.99 0.74,-0.49 -0.02,0.74 -0.02,0.75 -0.17,0.83 -0.18,0.84 -0.18,0.83 -0.2,0.84 -0.17,0.63 -0.18,0.63 -0.19,0.63 -0.19,0.63
m -441.99,16.3 1.2,0.85 0.32,0.5 -0.6,0.84 -0.6,0.83 -0.82,-0.7 -0.82,-0.7 -0.18,-0.58 0.93,-0.07 0.57,-0.97
m 364.1,-87.4 0.97,1.14 0.96,1.14 0.95,1.15 0.95,1.14 0.47,0.66 0.46,0.66 0.45,0.66 0.46,0.66 -1.26,-0.28 -1.25,-0.28 -0.99,-0.62 -0.99,-0.63 -0.54,-0.82 -0.55,-0.82 -0.55,-0.81 -0.55,-0.82 -0.38,-0.82 -0.38,-0.82 -0.39,-0.82 -0.39,-0.82 1.04,-0.43 0.75,0.8 0.75,0.79
M 99.47,19.09
l -1.25,0.16 0.6,-0.48 0.9,-0.23 0.92,-0.23 1.07,-0.39 1.08,-0.38 0.77,-0.13 1.28,-0.1 0.6,-0.2 0.59,-0.18 0.67,-0.1 -0.03,0.1 -0.65,0.62 -0.36,0.3 -0.68,0.37 -0.98,0.4 -0.98,0.42 -0.38,0.07
h -1.8
l -0.68,-0.01 -0.7,-0.01
m 9.44,-3.01 -0.44,-0.1 -0.45,-0.1 0.59,-0.22 0.58,-0.23 0.4,-0.21 0.4,-0.1 0.67,-0.03 -0.08,0.22 -0.1,0.22 -0.68,0.45 -0.89,0.1
m 2.66,-1.34 -0.75,0.12 -0.13,-0.13 -0.13,-0.12 -0.13,-0.12 -0.14,-0.12 0.92,-0.1 0.1,0.11 0.08,0.12 0.1,0.12 0.08,0.12
m -0.25,-0.94 -0.46,0.03
v -0.07
l -0.14,-0.17 -0.14,-0.16 0.66,-0.2 0.66,-0.2 0.22,-0.07 1.33,0.03 -0.31,0.15 -0.9,0.33 -0.92,0.33
m 1.84,-2.14 -0.87,0.03 0.66,-0.46 0.59,-0.05
h 0.94
l 0.13,0.1 0.12,0.09 -0.78,0.14 -0.79,0.15
m 168.3,13.17 0.78,-0.69 0.78,-0.68 0.57,0.08 0.56,0.1 0.29,0.4 0.29,0.43 -0.7,0.6 -0.7,0.63 -0.84,0.62 -0.61,0.14 -0.62,0.15 -0.5,-0.16 -0.5,-0.15 0.6,-0.74 0.6,-0.73
m 22.23,2.64 0.5,-0.14 0.51,-0.13 0.51,0.27 0.51,0.27 0.45,0.36 0.46,0.37 -0.4,0.05 -0.4,0.05 -0.4,0.05 -0.4,0.06 -0.62,-0.17 -0.61,-0.15 -0.1,-0.89
m 7.96,10.21 -0.76,-0.62 -0.45,0.02 -0.45,0.03 -0.51,-0.4 -0.51,-0.41 -0.67,-0.27 -0.68,-0.27 0.15,-0.23 0.57,-0.15 0.58,-0.15 0.5,0.34 0.49,0.35 0.46,0.52 0.63,0.07 0.63,0.07 0.29,0.28 -0.27,0.82
m -191.8,211.34 0.34,1.1 0.35,1.09 0.1,1.38 0.12,1.39 -0.67,1.28 0.68,0.8 0.18,1.12 0.17,1.1 0.14,0.81 0.15,0.8 0.5,0.71 0.52,0.71 1.04,1.42 0.03,-0.02 0.03,-0.01 0.05,-0.03 0.12,-0.05 0.22,-0.11 0.85,0.7 0.84,0.7 0.45,0.68 0.44,0.68 0.45,0.68 0.45,0.68 0.55,0.93 0.59,0.99 0.58,0.97 0.23,0.98 0.23,0.97 0.23,0.97 0.24,0.97 -0.26,1.2 0.79,0.56 -0.3,1.68 -0.34,1.22 -0.34,1.21 -0.34,1.21 -0.33,1.22 0.45,0.68 0.46,0.69 -0.94,1.54 -2.79,0.36 0.23,1.24 0.9,0.92 0.9,0.91 0.92,0.91 0.91,0.91 -1.33,2.23
h 2.6
l 0.58,0.77 0.57,0.77 0.58,0.78 0.58,0.77 0.73,1.09 0.73,1.09 0.74,1.08 0.75,1.08 0.15,1.07 0.16,1.06 -1.14,0.89 1.56,0.72 1.58,0.72 0.96,1.15 0.48,0.58 0.49,0.57 0.48,0.58 0.5,0.57 0.49,0.57 0.49,0.58 0.91,0.64 0.92,0.64 0.92,0.64 0.92,0.63 0.63,1.09 0.63,1.08 0.63,1.08 0.64,1.08 0.42,1.14 0.43,1.14 0.43,1.14 0.43,1.14 0.79,0.96 0.79,0.96 1.06,0.77 1.07,0.77 0.53,1.27 -0.4,1.61 -0.4,1.61 -0.36,1.54 -1.6,1.38 -1.6,1.38 -2.2,0.49 -1.36,0.13 -1.36,0.12 -1.37,0.12 -1.36,0.12 -1.55,0.63 -1.56,0.62 -1.5,0.26 -1.51,0.26 -0.65,-0.38 -1.67,1.03 -2.27,3.98 -1.35,1.35 -1.35,1.34 -1.12,1.16 -1.3,0.27 -1.09,1.21 -1.08,1.21 -1.05,0.24 -1.04,0.24 -1.05,0.23 -1.04,0.22 -1.74,1.81 -1.26,-0.24 -1.26,-0.25 -1.33,0.82 -0.65,-0.46 -0.65,-0.47 -0.64,-0.46 -0.65,-0.47 -1.05,-0.47 -1.04,-0.47 -1.04,-0.48 -1.04,-0.48 -1.1,-0.14 -1.08,-0.15 -0.73,-0.32 -0.73,-0.33 -0.73,-0.33 -0.72,-0.33 -0.91,-0.09 -0.91,-0.1 -0.9,-0.09 -0.9,-0.1 -1.55,0.3 -1.54,0.3 -1.24,1.28 -0.3,1.4 -1.62,1.75 -1.08,0.62 -1.08,-0.03 -1.09,-0.03 -1.1,0.45 -1.1,0.43 -1.1,0.44 -1.1,0.42 -1.38,0.09 -1.36,0.08 -0.97,-0.08 -0.96,-0.08 -1,0.6 -1,0.59 -0.98,0.05 -0.97,0.04 -1.56,0.58 -0.7,-0.16 -0.7,-0.17 -0.7,-0.17 -0.7,-0.17 -0.62,-0.8 -0.6,-0.79 -0.58,-0.32 -0.58,-0.32 -0.32,-0.6 -0.33,-0.58 -0.32,-0.6 -0.32,-0.58 -0.66,-0.5 -0.66,-0.52 -0.28,-1.06 -0.27,-1.07 -0.68,0.99 0.36,0.95 0.37,0.95 0.37,0.95 0.38,0.95 -0.97,1.22 0.35,0.94 0.36,0.93 -0.6,0.93 -0.77,0.3 -0.77,0.28 -0.77,0.28 -0.77,0.28 -0.81,-0.28 -0.8,-0.3 -0.81,-0.29 -0.8,-0.3 -0.95,-0.64 -0.95,-0.65 -0.93,-0.65 -0.93,-0.66 -0.46,-0.46 -0.45,-0.47 -0.45,-0.46 -0.46,-0.47 -0.1,0.79 -0.08,0.79 -1.04,1.27 -0.08,0.67 -0.07,0.67 -0.67,-0.07 -0.67,-0.08 -0.92,-0.6 -0.92,-0.6 -0.32,-0.54 -0.33,-0.54 -0.31,-0.55 -0.32,-0.54
h -0.87
l -0.31,1.17 -0.3,1.16 0.42,0.8 0.43,0.81 1.18,0.12 0.02,0.76 0.02,0.76 -0.89,-0.33 -0.88,-0.33 -0.91,0.1 -0.9,0.1 -0.53,0.96 -0.52,0.97 -0.79,0.8 -0.75,-0.63 -0.74,-0.65 -0.8,0.02 -0.81,0.02 -0.98,1.22 0.24,0.72 0.25,0.72 0.25,0.71 0.26,0.72 0.66,0.84 0.68,0.84 -1.16,1.43 -1.09,-0.17 -1.09,-0.17 -1.7,1.65 -0.8,-0.15 -0.78,-0.15 -0.86,0.5 -0.03,0.64 -0.03,0.65 -0.02,0.64 -0.03,0.65 0.17,0.5 0.16,0.5 0.17,0.5 0.16,0.5 -0.58,-0.6 -0.63,-0.54 -0.64,-0.53 -0.8,-0.05 -0.72,-0.14 -0.72,-0.14 -0.32,0.9 -0.32,0.9 -0.59,-0.42 -0.35,-0.49 -0.36,-0.49 -0.34,-0.49 -0.35,-0.49 -0.32,-0.7 -0.32,-0.7 -0.31,-0.7 -0.31,-0.7 -0.36,-0.67 -0.37,-0.66 -0.35,-0.67 -0.35,-0.67 -0.08,-0.88 -0.07,-0.89 0.65,-1 -0.19,-1.03 -0.18,-1.05 0.17,-1 0.17,-1.01 0.17,-1.01 0.19,-1.02 0.56,-0.84 0.56,-0.84 0.97,-0.23 0.98,-0.23 -0.5,-0.64 -0.5,-0.64 -0.48,-0.64 -0.5,-0.64 0.95,-0.42 0.95,-0.42 0.4,-0.84 0.39,-0.85 0.4,-0.85 0.4,-0.85 0.34,0.57 0.34,0.56 0.35,0.57 0.35,0.56 0.56,-1 0.56,-1 0.57,-1.02 0.57,-1 -0.4,-0.77 -0.4,-0.76 -0.7,1.23 -0.67,1.22 -0.42,-0.57 -0.4,-0.58 0.74,-1.45 0.75,-1.44 0.48,-0.96 0.49,-0.95 0.48,-0.96 0.5,-0.96 1.24,-0.94 0.18,-1.34 0.18,-1.34 0.42,-1.37 0.42,-1.37 0.67,0.54 1.18,-1.43 1.2,-1.43 1.27,-1.33 1.29,-1.34 1.04,-1.4 1.06,-1.4 0.27,-0.96 0.27,-0.96 0.27,-0.96 0.28,-0.96 1.31,-1.45 0.53,-1.54 0.53,-1.53 1.12,-0.95 1.12,-0.94 0.59,-1.05 0.59,-1.05 0.59,-1.05 0.6,-1.06 0.7,-1.07 0.7,-1.07 0.71,-1.08 0.72,-1.07 0.76,-1.17 0.77,-1.16 0.77,-1.17 0.77,-1.17 0.45,-0.98 0.44,-0.99 0.45,-0.98 0.46,-0.99 0.32,-0.91 0.33,-0.92 0.33,-0.91 0.34,-0.92 -0.26,-0.79 -0.26,-0.79 -0.25,-0.79 -0.25,-0.79 0.35,-1.12 -0.27,-0.75 -0.27,-0.74 -0.27,-0.75 -0.26,-0.75 -0.27,-0.75 -0.26,-0.75 -0.26,-0.75 -0.25,-0.75 -0.21,-0.74 -0.2,-0.73 -0.21,-0.74 -0.2,-0.74 -0.2,-0.74 -0.2,-0.74 -0.2,-0.75 -0.2,-0.74 -0.24,-1.46 -0.24,-1.46 0.19,-1.39 0.19,-1.39 0.63,-0.39 0.07,-1.2 0.08,-1.2 0.08,-1.2 0.09,-1.2 0.2,-1.6 0.21,-1.6 0.22,-1.6 0.23,-1.6 0.3,-1.68 0.3,-1.69 0.3,-1.68 0.32,-1.69
v -0.96
l -0.01,-0.96 0.27,-1.22 0.28,-1.22 -0.14,-1.58 -0.14,-1.58 -0.26,-1.21 -0.25,-1.21 1.15,-0.47 0.16,-0.83 0.17,-0.84 0.17,-0.83 0.18,-0.84 0.76,-0.56 0.76,-0.55 1.08,0.02 1.09,0.03 0.97,-0.38 0.99,-0.37 0.17,-0.76 0.18,-0.76 -1.3,0.37 -0.1,-1.16 -0.1,-1.15 0.74,-0.28 0.6,-1.3 0.61,-1.29 0.76,0.36 0.64,-0.57 0.65,-0.57 0.8,-0.4 0.81,-0.39 0.58,-1.15 1.16,0.64 1.67,0.47 0.32,-1.03 0.67,0.6 0.78,-1.3 0.96,-0.38 0.85,0.9 0.84,-0.31 0.85,-0.3 0.73,-0.23 0.73,-0.22 -0.07,-0.67 -0.06,-0.68 0.64,-0.49 0.64,-0.49 0.64,-1.32 0.65,-1.33 0.78,-0.16 0.64,-1.17 0.65,-1.17 0.2,-1.07 0.1,-0.53 0.05,-0.27 0.06,-0.26 0.03,-0.7 0.04,-0.7 0.36,-0.86 0.37,-0.85 0.84,-0.1 -0.2,-0.7 0.38,-1.17 -0.06,-0.86 -0.06,-0.86 -0.7,-0.81 -0.95,0.36 -1.02,-0.3 -0.35,-0.4 -0.53,0.26 -0.22,1.15 -0.22,1.15 -0.6,-0.29 -0.48,0.03 -0.71,-0.9 0.11,-0.23 0.12,-0.22 0.23,-0.44 0.48,-0.89 -0.5,0.11 -0.31,-0.86 0.27,-0.7 0.27,-0.68 -0.38,-1.06 -0.1,-0.84 -0.52,-0.95 -0.48,0.44 0.17,-0.6 -0.1,-0.86 -0.11,-0.86 0.2,-0.94 0.49,-0.15 0.41,-0.6 0.18,-1.16 -0.03,-0.67 -0.01,-0.66 -0.12,-1.06 0.54,-0.83 0.1,-1 -0.56,0.82 -0.73,0.1 0.34,-1.15 -0.15,-0.95 0.3,-0.77 0.66,-0.68 0.84,-0.43
v -0.96
l 0.68,0.08 0.16,-0.75 0.17,-0.75 0.2,-0.98 0.22,-0.99 0.54,-1.26 0.15,-0.83 0.15,-0.83 0.27,-1.09 0.29,-1.08 0.46,-0.1 -0.19,0.72 0.23,0.01 0.56,-1.1 -0.08,-0.87 -0.65,0.27 -0.5,-1.35 -0.1,-1.04 0.05,-0.7 0.06,-0.7 -0.17,-0.7 -0.17,-0.7 0.28,-1.14
v -1.57
l -0.24,-0.74 -0.23,-0.75 0.06,-0.75 0.07,-0.75 0.3,-1.08 0.32,-1.08 0.47,-1.26 0.47,-1.25 0.49,-1.26 0.49,-1.25 0.24,-0.96 0.25,-0.96 0.08,-1.24 0.09,-1.25 -0.53,-1.16 -1.48,-1.08 -0.56,-0.98 0.16,-1.13 0.16,-1.13 0.06,-1.1 0.06,-1.1 0.2,-0.82 0.2,-0.8 0.2,-0.82 0.2,-0.81 0.03,-1.05 0.03,-1.06 0.21,-0.93 0.22,-0.94 0.21,-0.93 0.22,-0.94 0.27,-0.76 0.27,-0.76 0.27,-0.77 0.27,-0.76 0.7,-1.18
v -1.49
l 0.16,-0.79 0.16,-0.79 0.17,-0.8 0.16,-0.78 0.64,-0.99 0.64,-0.98 0.37,-0.95 0.38,-0.96 0.38,-0.95 0.38,-0.95 0.47,-0.63 0.47,-0.62 0.47,-0.63 0.47,-0.62 0.74,-0.77 0.75,-0.78 0.33,0.64 0.89,-0.82 0.82,0.07 1.08,-0.66 0.7,-0.84 0.7,-0.84 0.62,-0.49 0.62,-0.48 0.8,-0.89 0.8,-0.88 0.8,-0.99 0.8,-0.99 0.8,-0.98 0.8,-0.99 0.66,-0.96 0.66,-0.95 0.66,-0.96 0.67,-0.95 0.53,-0.57 0.53,-0.56 0.53,-0.56 0.54,-0.56 0.37,-0.69 0.38,-0.69 0.39,-0.68 0.38,-0.7 0.86,-0.84 1.02,-0.32 1.02,-0.32 0.46,-0.8 0.46,-0.8 0.45,-0.54 0.46,-0.55 0.46,-0.54 0.45,-0.54 0.62,-0.42 0.61,-0.41 0.62,-0.41 0.62,-0.42 0.47,-1.39 0.51,-0.54 0.51,-0.54 0.52,-0.54 0.51,-0.53 0.95,-0.9 0.95,-0.9 1.1,-0.53 0.73,-0.58 0.72,-0.57 0.73,-0.56 0.73,-0.57 0.72,-0.46 0.72,-0.45 0.72,-0.46 0.72,-0.45 1.35,-0.45 0.45,-0.53 0.46,-0.54 0.46,-0.53 0.45,-0.54 0.06,-0.7 0.67,-0.83 0.68,-0.8 -0.67,0.05 -0.68,0.06 -0.92,0.48 -0.91,0.48 -0.69,0.29 -0.69,0.29 -0.68,0.29 -0.7,0.3 -0.83,0.65 -0.83,0.67 -0.71,0.66 -0.72,0.66 -0.7,0.66 -0.71,0.67 -0.92,0.71 -0.32,0.46 -0.64,0.4 -0.63,0.4 -0.04,0.39 -1.18,0.7 -1.17,0.7 -0.5,0.55 -0.51,0.56 -0.67,0.51 -0.66,0.52 -0.5,0.57 -0.5,0.57 -0.49,0.57 -0.5,0.57 -0.82,0.56 -0.83,0.57 -0.82,0.56 -0.82,0.58 -0.8,0.71 -0.79,0.72 -0.83,0.72 -0.83,0.73 -0.9,0.5 -0.9,0.52 -0.2,1.24 -0.8,0.88 -0.8,0.89 -0.78,0.83 -0.77,0.83 -0.59,0.27 -0.58,-0.2 -0.58,-0.18 0.04,-0.45 1.03,-0.87 1.04,-0.86 0.51,-0.65 0.51,-0.65 0.51,-0.64 0.52,-0.65 0.45,-0.65 0.46,-0.65 0.45,-0.64 0.46,-0.65 0.5,-0.84 0.51,-0.83 1.26,-0.56 1.26,-0.55 0.96,-0.61 0.96,-0.61 0.62,-0.82 0.63,-0.81 0.45,-0.59 0.46,-0.58 0.46,-0.59 0.47,-0.58 -0.4,-0.12 0.51,-0.5 0.51,-0.5 0.57,-0.92 0.57,-0.9 0.59,-0.57 0.59,-0.56 0.59,-0.56 0.6,-0.56 0.22,0.07 -0.4,1.06 0.57,0.18 0.58,0.17 0.79,-0.27 0.79,-0.27 0.74,-0.7 0.74,-0.69 0.74,-0.69 0.75,-0.69 0.66,-0.86 0.67,-0.87 0.62,-0.4 0.62,-0.42 0.63,-0.4 0.62,-0.41 0.66,-0.42 0.65,-0.41 0.66,-0.41 0.66,-0.41 0.8,-0.5 0.82,-0.5 0.8,-0.5 0.82,-0.48 0.9,-0.48 0.9,-0.48 0.9,-0.47 0.9,-0.47 1,-0.46 1,-0.45 0.65,-0.5 0.67,-0.5 0.66,-0.5 0.66,-0.5 0.42,-0.57 0.43,-0.57 1.15,-0.5 0.34,-0.64 0.35,-0.63 0.67,-0.51 0.66,-0.51 0.63,-1.05 0.63,-1.03 0.86,-0.69 1.09,-0.35 1.09,-0.34 1.2,-0.71 1.2,-0.7 1.2,-0.7 1.2,-0.68 0.77,-0.34 0.77,-0.33 0.77,-0.33 0.77,-0.32 0.77,-0.33 0.77,-0.32 0.77,-0.32 0.78,-0.32 0.82,-0.06 0.88,-0.54 0.89,-0.54 1.02,-0.5 1.02,-0.48 1.02,-0.5 1.03,-0.48 0.8,-0.16 0.8,-0.16 0.8,-0.16 0.8,-0.15 1.37,-0.63 1.36,-0.61 0.7,0.02 0.68,0.03 0.68,0.02 0.69,0.03 0.79,-0.09 0.79,-0.08 0.79,-0.09 0.79,-0.08 0.8,-0.2 0.8,-0.2 1.59,-0.4 0.7,0.12 0.7,0.12 0.7,0.13 0.69,0.13
h 0.75
l 0.75,0.01 0.74,0.02 0.74,0.01 0.74,0.02 0.74,0.02 0.73,0.02 0.73,0.03 1.2,-0.12 1.18,-0.1 1.18,-0.1 1.18,-0.1 0.82,-0.13 0.81,-0.14 0.82,-0.13 0.8,-0.13 0.97,-0.23 0.95,-0.22 0.45,0.2 -0.78,0.6 -0.78,0.58 -0.78,0.6 -0.78,0.59 -0.95,0.22 -0.95,0.23 -0.95,0.24 -0.95,0.23 0.53,0.4 0.72,-0.07 0.72,-0.08 0.72,-0.08 0.72,-0.07 0.77,-0.14 0.77,-0.14 0.77,-0.13 0.76,-0.14 0.2,-0.22 0.72,-0.38 0.72,-0.37 0.72,-0.38 0.72,-0.37 0.72,-0.37 0.73,-0.37 0.72,-0.37 0.73,-0.36 1.18,-0.52 1.18,-0.5 0.99,-0.68 0.99,-0.66 0.99,-0.66 1,-0.65 0.87,-0.14 0.86,-0.13 0.87,-0.13 0.86,-0.12 0.77,0.22 0.38,0.12 0.39,0.11 0.79,-0.41 0.8,-0.4 0.79,-0.42 0.8,-0.4 0.62,0.04 0.62,0.04 0.61,0.05 0.61,0.05 0.96,-0.31 0.95,-0.3 0.95,-0.3 0.95,-0.3 0.68,0.15 0.67,0.16 0.9,-0.23 0.9,-0.22 1.08,-0.44 1.08,-0.45 0.64,0.09 0.63,0.09 0.62,0.1 0.62,0.09 0.96,-0.21 0.96,-0.2 0.95,-0.2 0.95,-0.2 0.72,0.08 0.72,0.08 0.71,0.08 0.7,0.1 0.8,-0.5 0.8,-0.5 1.24,-0.86 1.25,-0.85 1.2,-0.45 1.19,-0.44 0.64,-0.1 0.63,-0.09 0.63,-0.09 0.63,-0.08 0.63,-0.09 0.63,-0.08 0.62,-0.08 0.63,-0.07 0.89,-0.32 0.9,-0.3 0.8,-0.27 0.82,-0.25 0.8,-0.26 0.82,-0.24 1.02,-0.66 1.02,-0.66 0.92,-0.2 0.91,-0.2 0.91,-0.2 0.91,-0.18 0.59,-0.04 0.58,-0.02 0.57,-0.03 0.58,-0.02 0.75,-0.58 0.75,-0.58 -0.26,-0.29 -0.26,-0.28 -0.26,-0.28 -0.26,-0.28 0.82,-0.52 0.84,-0.59 0.84,-0.59 0.57,-0.6 0.58,-0.62 0.84,-0.56 0.83,-0.56 0.35,0.54 0.35,0.53 0.04,2.22 -0.7,0.61 -0.7,0.62 0.31,0.17 0.32,0.17 0.76,-0.92 0.77,-0.92 0.3,-0.86 0.3,-0.86 0.47,-0.56 0.47,-0.55 0.47,-0.56 0.48,-0.55 -0.39,-0.15 -0.38,-0.15 -0.4,-0.14 -0.38,-0.14 0.58,-0.99 0.57,-0.98 0.83,-0.72 0.83,-0.71 0.81,-0.57 0.82,-0.56 0.23,-1.03 0.67,-0.45 0.66,-0.45 0.67,-0.44 0.66,-0.44 0.42,-1.12 0.52,-0.34 0.52,-0.34 0.52,-0.33 0.53,-0.33 0.33,-0.02 0.33,-0.02
h 0.33
l 0.32,-0.02 0.43,-0.21 0.43,-0.21 0.43,-0.21 0.42,-0.2 0.48,-0.24 0.47,-0.24 0.47,-0.22 0.47,-0.23 0.4,-0.2 0.38,-0.2 0.4,-0.2 0.39,-0.2 0.41,-0.09 0.42,-0.08 0.41,-0.07 0.42,-0.07 0.41,-0.07 0.42,-0.06 0.41,-0.06 0.42,-0.05 0.28,0.39 -0.53,0.22 -0.53,0.23 -0.53,0.23 -0.53,0.24 -0.46,0.17 -0.46,0.17 -0.46,0.18 -0.45,0.18 -0.5,0.32 -0.48,0.33 -0.48,0.33 -0.49,0.34 -0.57,0.12 -0.57,0.12 -0.57,0.12 -0.57,0.14 -0.42,0.5 -0.4,0.52 -0.6,0.43 -0.59,0.43 -0.59,0.43 -0.59,0.44 -0.33,0.52 -0.6,0.5 -0.6,0.53
v 1.69
l -0.32,0.73 -0.32,0.73 0.46,-0.27 0.46,-0.27 0.46,-0.27 0.45,-0.26 0.3,0.14 0.3,0.13 0.41,-0.48 0.4,-0.47 0.31,0.23 0.31,0.24 0.3,0.24 0.31,0.24 0.37,-0.86 0.37,0.52 0.36,0.52 0.4,-0.27 0.4,-0.27 0.4,-0.27 0.4,-0.26 0.52,-0.04 0.51,-0.03 0.2,1.34 -0.26,0.85 0.53,0.38 0.53,0.39 0.52,-0.12 0.52,-0.12 0.52,-0.11 0.52,-0.11 0.66,0.55 0.66,0.56 0.53,0.3 0.53,0.3 -0.06,1.3 0.56,0.53 0.55,0.54 -0.33,0.64 -0.33,0.64 -0.62,0.61 -0.62,0.62 -0.55,1.18 -0.57,0.07 -0.57,0.08 -0.48,-0.19 -0.49,-0.18 -0.55,0.58 -0.55,0.58 -0.51,-0.08 -0.5,-0.08 -0.51,0.4 -0.51,0.4 0.32,1.05 0.39,0.19 0.39,0.19 -0.47,0.48 -0.46,0.5 0.8,-0.1 0.7,-0.28 0.69,-0.29 0.4,-0.53 0.52,0.25 0.53,0.26 0.47,-0.06 0.47,-0.06 0.47,-0.05 0.47,-0.05 0.48,0.16 0.48,0.17 0.48,0.18 0.48,0.17 0.48,1 0.74,0.77 0.74,0.77 -0.46,0.2 -0.47,0.2 -0.46,0.2 -0.46,0.2 -0.7,0.25 -0.7,0.25 -0.7,0.26 -0.7,0.26
h -0.5
l -0.49,-0.02 0.17,-1.2 -0.65,0.04 -0.65,0.03 -0.66,0.04 -0.65,0.04 0.52,0.72 0.52,0.73 0.74,0.44 0.74,0.46 0.4,0.6 0.41,0.61 0.53,0.54 0.53,0.53 0.75,0.43 0.75,0.43 -0.35,0.61 -0.35,0.61
h -1.93
l -0.68,0.54 -0.67,0.56 -0.24,1.18 -0.5,0.6 -0.51,0.6 -0.48,0.16 -0.48,0.16 -0.45,0.31 -0.44,0.3 -0.45,0.32 -0.44,0.31 -0.46,-0.03 -0.45,-0.03 -0.65,0.75 -0.65,0.75 -0.76,-0.13 -0.76,-0.12 -0.45,-0.47 -0.46,-0.46 -0.33,0.55 -0.82,0.12 -0.83,0.13 -0.09,-0.55
h -0.8
l -0.8,0.02 -0.91,0.54
h -0.57
l -0.58,-0.01
h -1.15
l -0.49,0.13 -0.48,0.13 -0.98,0.27 -0.87,0.04 -0.56,0.46 -0.55,0.46 -0.9,0.04 -0.89,0.04 -0.6,0.13 -0.6,0.13 -0.53,0.12 -0.52,0.13 -0.53,0.13 -0.52,0.13
h -2.18
l -0.57,0.22 -0.56,0.24 -0.2,1.28 -0.63,1.3 -0.77,0.36 -0.76,0.37 -0.29,0.85 -0.28,0.85 -0.47,0.74 -0.47,0.74 -0.65,-0.09 -0.66,-0.09 -0.19,0.87 0.35,0.43 0.34,0.44 -0.74,0.3 -0.77,-0.02 -0.76,-0.02 -0.77,-0.02 -0.77,-0.01 0.31,1.9 -0.4,-0.23 -0.42,-0.23 -0.4,-0.22 -0.42,-0.23 -0.61,1.15 0.32,0.66 -1.01,0.86 -1.01,0.36 -1,0.36 -0.63,0.39 -0.62,0.38 -0.62,0.4 -0.62,0.38 -0.67,0.51 -0.67,0.51 -0.5,0.91 -1.06,0.38 -1.05,0.4 -0.25,-1.69 -0.87,0.76 -0.88,0.75 -0.71,1.32 -0.72,1.31 -0.07,0.92 -1.07,0.34 -1.08,0.36 0.34,0.65 0.34,0.65 0.83,-0.37 0.83,-0.37 0.52,0.79 -0.53,1.15 -0.15,0.8 -1.02,0.65 -0.96,0.38 -0.96,0.38 -0.32,1.11 -1,0.82 -1,0.82 -0.21,1.58 -0.63,1.46 0.88,-0.04 0.87,-0.02 0.16,0.88 -0.73,0.75 -0.72,0.76
h -1.31
l -0.65,0.01 -0.66,0.01 0.5,0.15 0.5,0.15 0.5,0.15 0.5,0.15 -0.31,0.8 0.66,0.1 0.67,0.09 0.66,0.09 0.66,0.1 1,-0.51 1,-0.51 0.73,-0.53 0.73,-0.52 0.75,0.05 0.74,0.05 0.75,0.05 0.74,0.06 0.82,0.54 0.82,0.55 -0.78,1.08 -0.73,0.42 -0.72,0.42 -0.86,0.32 -0.85,0.31 -0.86,0.32 -0.85,0.32 -0.58,-0.38 -0.57,-0.38 -0.5,0.89 -0.48,0.88 -0.71,0.05 -0.72,0.06 -0.7,0.05 -0.72,0.07 0.48,0.26 0.48,0.28 0.48,0.27 0.48,0.27 -1,0.68 -1,0.67 -1.02,-0.02
h -1.01
l -1.03,0.62 -1.02,0.63 0.94,0.37 0.94,0.38 0.58,0.08 0.58,0.08 0.58,0.08 0.59,0.09 0.76,-0.11 0.77,-0.1 0.76,-0.1 0.77,-0.1 -0.37,1.34 -0.53,1.44 -0.73,0.77 -0.72,0.77 -0.7,0.18 -0.69,0.18 -0.73,-0.2 -0.72,-0.2 -0.77,0.53 -0.76,0.53 -0.68,0.1 -0.68,0.1 -0.46,-0.4 -0.46,-0.4 -0.47,-0.39 -0.47,-0.4 -0.31,-1.38 0.96,-1.27 -0.7,-0.02 -0.68,-0.03 -0.56,-0.15 -0.57,-0.15 -0.56,-0.15 -0.56,-0.15 -0.6,-0.04 -0.6,-0.05 -0.87,-0.48 -0.86,-0.48 0.08,-1.64 -0.51,-0.36 -0.52,-0.37 -0.92,0.12 -0.92,0.12 -0.08,-1.36 -0.5,-0.29 -0.5,-0.29 -0.5,-0.28 -0.5,-0.29 -0.72,-0.22 -0.72,-0.23 -0.73,-0.21 -0.73,-0.22 -1.08,-0.08 -1.08,-0.07 -0.84,0.12 -0.83,0.12 -0.84,0.13 -0.84,0.13 -0.47,1.06 -0.47,1.06 -0.7,0.3 -0.72,0.3 -0.72,0.3 -0.7,0.3 -1.18,0.59 -1.16,0.59 0.25,1.86 -0.4,0.76 -0.4,0.75 -0.4,0.75 -0.4,0.76 -0.62,0.88 -0.62,0.88 -0.72,0.74 -0.72,0.73 -0.45,1.05 -0.44,1.06 -0.63,0.99 -0.62,0.99 -0.08,1.25 -0.08,1.25 -0.12,0.86 -0.11,0.85 -1.23,0.37 -1.23,0.38 -0.7,0.4 -0.71,0.42 -0.7,0.41 -0.71,0.42 -0.77,0.62 -0.77,0.62 -0.77,0.63 -0.77,0.62 -0.6,0.9 -0.61,0.89 -0.6,0.9 -0.6,0.9 0.53,0.38 0.52,0.39 0.74,-0.14 0.74,-0.14 0.74,-0.13 0.73,-0.13 1.07,-0.72 1.07,-0.71 1.08,-0.71 1.07,-0.7 0.68,-0.86 0.69,-0.84 0.77,0.87 0.77,0.89 1.07,0.36 1.07,0.37 1.01,-0.05 1.01,-0.05 0.91,-0.48 0.92,-0.48 1.11,-0.97 1.12,-0.98 0.96,-1.25 0.97,-1.24 0.77,0.08 0.76,0.1 0.76,0.09 0.76,0.1 1.23,-0.79 1.23,-0.77 1.08,-0.51 1.08,-0.52 1.07,-0.5 1.08,-0.5 0.7,0.6 -0.28,1.16 -0.28,1.16 -0.12,1.34 0.84,0.67 -0.37,0.75 -0.38,0.75 -0.66,1.08 -0.65,1.1 -0.97,0.85 0.26,2.24 -1.12,0.55 -1.12,0.56 -0.8,0.54 -0.82,0.54 -0.8,0.55 -0.82,0.55 -0.1,1.38 -0.63,0.89 -0.64,0.9 1,0.48 1,0.5 0.8,-0.14 0.8,-0.13 0.81,-0.13 0.8,-0.12 0.73,0.04 0.73,0.04 -0.98,1.15 -0.97,1.16 -0.65,0.91 -0.66,0.91 -0.64,0.92 -0.65,0.91 -0.6,0.85 -0.6,0.84 -0.6,0.85 -0.6,0.85 -0.88,0.29 -0.88,0.28 -0.3,1.34 -0.31,1.34 -0.42,1.09 -0.41,1.09 0.2,1.25 0.21,1.25 -0.31,1.42 -0.85,1.05 -0.83,1.06 0.26,1.25 -0.56,1.25 -1.25,1.15 -1.23,1.15 -1.42,-0.23 -1.35,-0.27 -1.03,-0.79 -1.03,-0.78 -1.42,-0.1 -1.42,-0.08 -1.6,-2.1 -0.46,-1.75 -0.46,-1.75 -0.92,-2.2 -0.78,-1.42
h -2.28
l -0.91,-0.6 -0.92,-0.59
h -3.11
l -1.03,0.02 -0.74,-0.07 -0.75,-0.07 -0.74,-0.07 -0.74,-0.06 0.88,1.09 1.05,0.06 1.06,0.07 1.05,0.07 1.06,0.07 0.82,0.44 0.83,0.44 0.83,0.44 0.83,0.45 1.16,2.08 -0.3,1.1 -0.3,1.12 -1.13,-0.1 -1.13,-0.1 -0.6,0.61 -0.6,0.62 -0.6,0.62 -0.59,0.62 -0.79,0.96 -0.78,0.96 -0.1,1.49 -0.1,1.49 1.64,2.27 0.85,-0.17 0.85,-0.17 0.85,-0.17 0.84,-0.17 -0.8,0.76 -0.8,0.77 -0.14,0.85 -0.14,0.85 -1.27,-0.3 -1.26,-0.3 -0.8,-0.57 -0.8,-0.58 -0.79,-0.57 -0.8,-0.57 -0.86,-0.4 -0.87,-0.4 -1.28,-0.22 -1.28,-0.2 -0.4,-1.39 1,-0.83 1,-0.83 0.8,0.3 0.82,0.3 0.81,0.31 0.82,0.31 -1.25,-2.49 -1.07,-1.57 -0.68,0.9 -0.96,-0.44 -0.95,-0.42 -0.77,-0.54 -0.77,-0.53 -0.71,-0.62 -0.71,-0.61 -0.9,0.08 -0.92,0.1 -0.66,0.11 -1.33,0.95 -0.55,0.77 -0.54,0.77 0.22,0.76 0.83,-0.85 -0.34,0.92 -0.76,0.4 -0.86,-0.88 -0.28,-0.87 -0.92,-0.97 -0.4,-0.68 -0.49,-0.94 -1.24,-0.96 1.39,2.27 -0.28,0.87 -1.65,-1.94 -0.39,-1.14 0.33,-0.17 -0.89,-0.05 0.06,0.62 -0.97,0.45 -0.97,0.45 -1.2,0.03 -1.2,0.04 0.6,-0.6
v -0.5
l 0.45,-1.05 -0.63,0.67 -0.62,0.68 -0.3,0.78 -0.95,0.72 -1.18,0.12 -1.2,0.2 -1.18,0.2 0.05,-0.24 0.96,-0.34 0.95,-0.33 0.33,-0.82 0.34,-0.83 1.03,-0.86 1.03,-0.85 -1.22,0.42 -0.75,0.77 -0.75,0.77
v -0.76
l 0.02,-0.76 -0.22,0.93 -0.2,0.94 -1.2,0.91 -1.2,0.91
v 0.67
l -0.8,0.84 -1.21,1.07 -1.2,1.07 -1.15,0.09 -1.14,0.1 -1.44,-1.47 -0.95,-0.1 -0.95,-0.08 -0.49,-0.87 -1.25,-0.32 -0.95,0.35 -1.17,-0.5 -1.17,-0.48 -0.78,-0.13 -0.78,-0.13 -0.91,0.08 -0.9,0.08 -0.97,0.51 -0.95,0.52 -0.84,0.85 -0.83,0.86 -0.97,1.17 -0.97,1.17 -0.73,1.16 -0.73,1.16 -1.08,0.87 -0.63,0.82 -0.62,0.83 -0.63,0.83 -0.61,0.83 -0.84,0.65 -0.83,0.65 -0.98,0.7 -0.84,0.36 -0.84,0.36 -0.55,-0.37 -0.1,-1.3 0.47,-0.62 0.48,-0.61 0.28,-1.27 0.43,-0.72 0.44,-0.71 0.44,-0.72 0.44,-0.71 0.8,-1.25 0.8,-1.26 0.9,-1.08 0.9,-0.44 0.92,-0.43 0.62,-0.82 0.62,-0.83 0.42,-0.81 0.42,-0.81 0.43,-0.81 0.43,-0.81 0.18,-1.1 -0.87,-0.65 -0.87,-0.64 0.04,-0.47 0.49,-0.95 0.5,-0.95 0.18,-0.9 0.19,-0.9 -0.43,-1.08 -0.42,-1.1 -0.04,-1.05 -0.03,-1.05 -0.48,-1.52 -0.58,-0.6 -0.67,0.86 -1.13,0.7 -0.47,0.82 -0.43,-0.17 0.26,-1.08 -0.66,-0.47 -0.1,-0.83 -0.08,-0.82 0.31,-0.65 0.31,-0.64 0.31,-0.65 0.32,-0.65 -0.6,-1.7 0.23,-1 0.25,-1 -0.35,-1.26 -0.86,-1.47 -0.58,-0.19 -0.59,-0.19 -0.58,-0.18 -0.59,-0.19 -0.72,-0.74 -0.72,-0.75 -0.75,-0.2 -0.75,-0.2 -0.69,0.13 -0.68,0.14 -1.02,0.6 -1.02,0.61 -0.7,0.5 -0.71,0.49 -0.96,1.05 -1.33,0.36 -1.33,0.37 -1.08,0.47 -1.07,0.48 -0.98,0.59 -0.98,0.6 -0.98,0.6 -0.98,0.6 -0.72,0.36 -0.72,0.37 -0.76,0.73 -0.75,0.75 -0.65,0.85 -0.64,0.85 -1.07,1.01 -1.06,1.02 -0.46,0.77 -0.46,0.78 -0.45,0.77 -0.45,0.77 -0.74,0.87 -0.74,0.86 -0.58,0.98 -0.59,0.98 -0.04,0.76 -0.05,0.77 -0.04,0.76 -0.04,0.77 -0.45,0.92 -0.45,0.93 1.25,1.46 0.72,1.56 0.93,1.36 0.84,1.1 0.73,0.29 0.73,0.3 0.84,-0.34 0.83,-0.34 1.12,-0.78 1.12,-0.78 0.87,-0.21 1.1,1 1.28,1.9 0.24,1.04 0.26,1.03 0.63,1.19 -0.36,0.97 -1.23,0.93 -0.94,0.02 -0.94,0.03 -0.85,0.37 -0.85,0.38 -0.3,0.78 -1.19,0.57 -1.06,0.56 -1.06,0.55 0.44,-1.13 -0.2,-0.44 -0.36,0.33 0.13,0.44 -0.68,0.54 -1.2,0.57 -0.31,0.53 -0.97,0.54 -0.18,0.35 -1.33,0.84 -0.8,0.12 -0.23,-0.34 -1,0.31 -0.18,1.14 0.43,-0.13 -0.06,0.95
v 0.32
l 0.6,0.12 0.28,0.61 -0.11,0.4 0.25,0.24 0.2,1.24 0.46,0.99 0.56,0.48 0.36,0.01 0.17,0.84 0.06,0.68 0.3,0.54 0.39,0.25 0.05,0.67 0.06,0.66 0.1,0.4 -0.13,1.1 -0.23,1.13 0.02,1.15 -0.35,1.2 -0.3,0.01 -0.56,0.39 -0.7,1.05 -1,0.25 -1,0.66 -1.01,0.92 -0.51,0.7 -0.96,1.07 -0.38,-0.12 -1.03,0.77 -0.5,0.75 -0.77,0.13 -0.53,0.71 -0.18,0.72 -0.44,0.9 -0.43,0.9 -0.2,0.9 -0.2,0.9 -0.16,1 -0.17,1.01 -0.15,0.81 -0.15,0.81 -0.46,0.45 0.4,0.98 0.28,0.02 -0.15,1.18 0.76,0.91 1.05,0.36 1.18,0.86 1.03,0.06 0.3,0.67 0.3,0.67 -0.24,0.14 0.66,1.3 0.13,0.69 0.13,0.68 -0.07,0.7 -0.07,0.7
v 0.72
l -0.01,0.73 0.65,1.19
h 1.18
l 1.18,0.01 0.77,0.64 0.63,-0.74 0.93,-0.77 0.93,-0.78 1.67,0.17 0.9,1.3 0.5,-0.3 0.48,0.92 0.47,0.93 2.06,0.5 0.97,0.33 1.58,-0.1 0.4,0.89 -0.1,1.16 -0.9,0.36 -0.47,0.48 -1.07,-0.97 -0.18,0.87 -0.17,0.87 -0.95,1.18 -1.7,0.4 -0.22,0.66 -0.2,0.66 -0.21,0.66 -0.2,0.66 0.76,0.76 0.8,-0.6 0.81,-0.6 0.08,-0.73 0.08,-0.74 0.63,-0.92 0.64,-0.93 2.6,1.68 0.3,-0.69 0.33,-0.68
H 109
l -0.36,1.19 -0.35,1.18 0.52,0.75 0.53,0.75
v 0.66
l 0.01,0.66 0.01,0.66 0.01,0.65 -0.5,0.85 0.7,0.94 0.7,0.94 0.96,0.98 0.95,0.98 0.1,1.11 0.1,1.1 0.53,0.94 0.54,0.93 1.44,0.4 0.43,-0.56 1.09,1.19 1.1,1.18 1.04,1.2 1.04,1.18 -1.93,-1.01 -0.07,0.9 -0.07,0.9 0.64,0.89 0.65,0.89 0.3,1.34 0.3,1.33 -0.46,1.11 -0.45,1.1 0.97,1 0.38,1.33
m 507.17,-91 -0.04,1.13 -0.72,-0.56 -0.72,-0.55 -0.63,-1.11 1.05,0.54 1.06,0.55
m -4.66,-4.64 0.56,0.7 0.56,0.72 0.55,0.71 0.55,0.72 -0.6,0.02 -0.08,0.6 -0.85,-0.8 -0.49,-0.74 -0.5,-0.74 -0.5,-0.73 -0.5,-0.74 0.65,0.14 0.65,0.14
m -322.41,282.14 -0.5,-0.45 -0.5,-0.46 -0.5,-0.46 -0.5,-0.47 -0.52,-0.9 -0.52,-0.9 -0.31,-1.19 -0.3,-1.2 -0.34,-0.9 -0.33,-0.9 -0.46,-1.9 -0.46,-1.92 -0.08,-2.97 -0.35,-1.38 -0.53,-0.53 -0.53,-0.54 -0.71,-1.08 -0.71,-1.08 -0.36,-0.77 -0.37,-0.78 -0.36,-0.78 -0.36,-0.78 -0.6,-1.63 -0.55,-0.65 -0.56,-0.67 -0.56,-0.66 -0.55,-0.67 -0.17,-1.97 -0.26,-1.63 0.37,-2.23 0.48,-1.14 0.47,-1.15 0.15,-1.1 0.44,-1.14 0.45,-1.14 0.65,-1.03 0.78,-0.8 0.78,-0.82 0.45,-0.56 0.44,-0.56 0.29,-1.94 -0.14,-1.5 -0.81,-0.98 -0.72,-1.64 -0.66,-1.64 0.15,-0.54 0.84,-1 -0.4,-1.32 -0.4,-1.3 -0.55,-1.84 -0.67,-0.89 -0.67,-0.9 0.25,-0.5 -0.37,-0.86 -0.7,-2.07 -0.54,-0.76 -0.55,-0.75 -0.54,-0.76 -0.54,-0.77 -0.68,-0.74 -0.68,-0.74 -0.68,-0.75 -0.68,-0.75 -0.87,-1.21 -0.86,-1.22 -0.79,-1.5 -0.78,-1.5 0.11,-0.9 0.6,-0.8 0.7,-1.93 0.59,-1.98 -0.49,-0.48 0.5,-1.5 0.5,-1.5 0.43,-2.15 -0.49,-0.96 -0.48,-0.97 -1.18,-0.6 -0.5,-1.3 -0.66,-0.49 0.07,-0.76 -0.7,0.17 -0.68,0.17 -0.69,0.16 -0.69,0.17 -0.98,-0.28 -1.03,0.48 -1.05,-0.18 -1.04,-0.19 -0.66,-0.98 -0.66,-0.98 -0.38,-1.07 -0.38,-1.07 -0.87,-1.07 -0.87,-1.07 -0.98,-0.16 -0.97,-0.16 -1.15,-0.22 -1.14,-0.22 -1.08,-0.05 -1.08,-0.06 -1.07,0.08 -1.07,0.07 -1.05,0.17 -1.05,0.18 -1.05,0.16 -1.06,0.16 -0.76,0.3 -0.76,0.3 -1.21,0.1 -1.21,0.1 -1.14,-0.7 -1.13,-0.7 -1.19,-0.3 -0.88,-0.52 -0.89,-0.53 -0.84,-0.23 -0.83,-0.22 -0.79,-0.11 -0.79,-0.12 -0.78,-0.11 -0.79,-0.12 -0.95,0.1 -0.95,0.1 -0.68,0.05 -0.68,0.04 -0.67,0.03 -0.68,0.04 -0.5,-0.24 -0.7,-0.2 -1.26,-1.11 -1.26,-1.11 -0.52,-0.72 -0.52,-0.73 -0.52,-0.72 -0.52,-0.72 -1,-1.15 -1,-1.14 -0.73,-1.2 -0.73,-1.2 -0.66,-0.46 -0.84,-0.9 -0.83,-0.9 -0.54,-0.99 -0.54,-0.98 -0.28,-1.17 0.02,-1.06 0.02,-1.06 -0.4,-1.02 -0.41,-1.02 -0.78,-1.46 -0.57,-0.62 -0.51,-0.8 -0.06,-1.31 -0.24,-0.75 -0.63,-0.75 -0.54,-0.85 -0.55,-0.85 -0.99,-0.63 -0.4,-1 0.1,-0.41 -0.61,-0.9 -0.03,-0.65 0.03,-1.13 0.03,-1.12 0.57,-1.06 -0.25,-1.28 -0.26,-1.28 -0.95,-1.5 1.16,-0.04 1.58,-1.39 0.88,-1.15 0.14,-1.55 0.97,-1.05 0.9,-2.45 0.2,-1.4 0.2,-1.41 0.05,-1.5 0.56,-1.26 -0.26,-1.57 -0.87,-1.72 0.4,-1.1 1.47,-1.6 1.09,-1.1 0.1,-1 1.26,-1.6 1.66,-1.21 0.84,-0.13 0.99,-1.36 0.42,-1.46 1.2,-1.38 1.68,-0.42 2.06,-2.28 0.05,-0.02
v -0.01
l 1.32,-0.64 2.03,0.48 2.1,-1.29 1.22,-0.35 2.28,-1.71 0.13,-1.86 0.14,-1.85 1.34,-2.15 0.61,-1.4 1.73,-1.45 2.28,-0.6 1.73,-0.7 1.94,-2.53 0.98,-1.55 1.44,0.45 0.94,1.57 1.9,0.34 1.94,1.2 0.86,0.25 2.16,-1.1 2.21,0.02 1.42,-0.92 2.02,-0.48 3.4,0.14 3.27,0.33 0.95,0.59 1.97,-0.88 2.1,0.26 0.74,0.78 1.37,-0.01 2.22,-0.97 1.36,0.48 -0.15,1.48 1.74,-0.94 0.11,0.57 -1.06,1.37 -0.09,1.36 0.66,0.78 -0.4,2.52 -1.41,1.37 0.3,1.63 1.06,0.14 0.45,1.44 0.77,0.51 2.41,1.16 0.89,-0.2 1.73,0.55 1.38,0.7 1.38,0.69 0.96,2.63 1.92,0.58 1.5,0.6 1.5,0.6 1.16,0.69 1.16,0.7 1.03,-0.8 0.99,-1.4 -0.56,-2.23 0.62,-1.46 1.46,-1.46 1.43,-0.49 1.42,0.19 1.42,0.19 0.79,1.24 0.79,-0.06 0.7,0.43 2.1,0.12 0.59,0.9 1.4,-0.2 1.4,-0.2 2.1,0.47 2.18,0.53 1.02,0.29 1.53,-1.22 0.77,-0.99 1.82,-0.6 1.54,0.06 0.76,1.32 0.36,-1.05 1.77,0.31 1.67,-0.22 0.75,-1.12 0.46,-1.09 0.34,-1.48 0.07,-2.28 0.18,-0.8 0.05,-0.05 0.33,-2.54 0.65,-2.3 0.02,-0.1 -0.58,-2.16 0.27,-1.32 -0.95,-1.1 0.54,-1.29 -1.14,0.57 -1.74,-0.24 -1.07,2 -2.93,1.01 -1.82,-1.2 -2.13,0.33 -0.3,1.3 -1.32,0.6 -2.09,-1.22 -2.14,0.4 -1.46,-2.73 -1.57,-1.43 0.72,-2.4 -1.34,-1.24 1.81,-3.1 2.87,-0.58 0.5,-2.36 3.57,-0.28 1.9,-2.36 1.98,-1.3 2.96,-0.81 3.54,1.17 2.82,0.33 2,-1.1 1.6,-0.26 1.73,-2.21 -0.04,-1.3 -0.94,-1.78 -1.26,-0.7
h -1.04
l -0.85,-0.66 -2.76,-1.7 -2.19,-0.48 -1.83,-1.25 1.12,-0.82 0.84,-2.82 -1.18,-0.85 2.13,-1.92 -0.2,-0.6 -1.34,0.92 -1.25,0.63 -0.88,1.24 -1.51,0.59 -1.21,1.45 0.45,1.77 0.96,0.48 1.69,-0.65 -0.12,1.11 -1.76,1.01 -2.02,2.27 -1.06,-0.36 0.14,-1.45 -2.02,-0.4 0.21,-0.63 1.45,-1.35 -0.6,-0.54 -2.74,-0.14 -0.29,-1.06 -1.5,0.68 -0.38,1.72 -1.02,2.4 0.14,0.75 -0.75,0.79 -0.56,-0.19 -0.06,3.61 -0.77,1.36 -0.42,2.2 0.77,1.57 0.35,1.1 1.72,0.67 -0.26,0.77 -2.18,0.53 -0.69,1.02 -1.4,1.8 -0.72,-1.29 -0.04,-0.6 -1.14,0.06 -1,-0.16 -2.2,1.01 1.43,1.52 -0.93,0.58 -1.05,0.1 -1.1,-1.42 -0.3,0.68 0.52,1.72 1.04,1.29 -0.68,0.7 1.16,1.27 1.01,0.75 0.15,1.66 -1.86,-0.6 0.67,1.44 -1.23,0.42 0.9,2.53 -1.31,0.15 -1.7,-1.15 -0.84,-2.3 -0.43,-1.94 -0.81,-1.3 -1.05,-1.63 -0.16,-0.84 -0.33,-0.18 -0.06,-0.65 -1.08,-0.95 -0.2,-1.4 0.1,-2.01 0.23,-0.93 -0.33,-0.45 -0.4,-0.21 -0.53,-0.94 -0.8,-0.57 -1.73,-1.05 -1.06,-1.06 -1.65,-0.87 -1.47,-2.19 0.36,-0.22 -0.8,-1.25 -0.01,-1 -1.12,-0.5 -0.56,1.26 -0.5,-1 0.07,-1.03 0.07,-0.04 0.4,-0.26 -1.37,-0.48 -1.45,0.97 0.03,1.47 -0.25,0.82 0.52,1.54 1.62,1.56 0.85,2.47 1.99,2.43
h 1.44
l 0.45,0.66 -0.53,0.58 1.67,1.08 1.38,0.87 1.63,1.5 0.2,0.56 -0.33,1.06 -1.07,-1.36 -1.65,-0.46 -0.79,1.9 1.38,1.1 -0.22,1.54 -0.8,0.18 -1.04,2.52 -0.82,0.22 0.01,-0.9 0.41,-1.58 0.42,-0.63 -0.74,-1.7 -0.56,-1.5 -0.78,-0.39 -0.54,-1.28 -1.2,-0.57 -0.78,-1.22 -1.37,-0.25 -1.4,-1.41 -1.59,-2.03 -1.14,-1.8 -0.38,-2.95 -0.86,-0.42 -1.37,-1.12 -0.84,0.31 -1.14,1.24 -0.76,0.13 -1.78,1.44 -3.44,-1.34 -2.72,0.5 -0.44,1.7 -0.13,1.72 -2,1.6 -2.44,0.12 -0.32,0.94 -1.39,1.35 -1.1,2.2 0.47,1.83 -1.3,1.03 -0.71,1.79 -1.55,0.22 -1.76,1.87 -2.46,-0.62 -1.84,-0.58 -1.41,0.66 -0.96,0.85 -0.9,-0.53 -0.52,-1.19 -0.19,-1.82 -1.68,-1.03 -0.93,0.48 -0.9,-0.75 -1.06,-0.03 0.82,-2.12 0.25,-1.8 -0.76,-0.56 -0.17,-1.24 0.62,-1.8 0.99,-0.76 0.42,-1.1 0.8,-1.57 0.27,-1.21 -0.1,-1.15 0.18,-0.99 0.62,-1.98 -0.38,-1.49 2.96,-1.17 1.97,1.23 2.32,0.73 1.74,1.05 1.47,0.26 2.81,0.86 1.23,-1.5 0.7,-2.83 0.7,-2.84 -1.13,-3.47 -0.9,-1.78 -2.22,-1.81 0.32,-2.14 2.2,-0.02 2.5,1.46 0.08,-1.7 0.08,-1.69 1.23,1.62 2.03,-0.7 2.03,-0.7 0.87,-2.28 1.43,-0.3 1.31,-0.34 0.9,-0.65 0.96,-2.03 0.96,-2.02 2.17,-0.9 1.21,0.26 0.35,-0.58
h 1.24
l 0.21,0.67 1.13,-1.32 -0.23,-1.13 0.08,-1.67 -0.42,-1.68 0.26,-2.98 0.3,-0.76 0.48,-0.83 1.2,-0.05 0.54,-0.76 1.14,-0.72 -0.15,1.5 -0.47,0.9 0.1,0.84 0.71,0.5 -0.4,1.08 -0.4,-0.36 -1.17,2.01 0.28,1.46 -0.07,1.13 1.41,0.81 -0.08,1.04 1.52,-0.44 0.85,-0.76 1.6,1.24 0.66,0.96 1.02,-0.83 1.15,-0.67 1.14,-0.66 1.8,-1 1.45,0.46 0.13,0.71 1.4,-0.02 0.28,-1.3 1.92,-1.06 -0.43,-2.44 -0.08,-2.2 0.56,-1.89 1.2,-1.1 1.23,2.09 1.08,-0.18 0.05,-2.25 -0.01,-1.74 -0.45,0.42 -0.91,-0.94 -0.26,-1.66 1.54,-0.98 1.54,-0.63 1.42,0.28 1.29,-0.29 1.18,-1.84 -1.5,-1.14 -1.09,0.29 -1.1,0.28 -1.02,0.67 -1.03,0.67 -1,0.42 -0.98,0.41 -0.84,-1.52 -1.26,-0.86 0.1,-2.88 -0.74,-2.57 0.45,-1.73 0.89,-1.9 1.1,-1.7 1.09,-1.68 0.64,-0.7 -0.25,-1.2 -0.8,-0.59 -0.78,-0.59 -0.86,0.5 -0.85,0.49 -0.88,2.1 0.28,1.74 -0.81,1.22 -0.82,1.21 -1.06,1.29 -1.06,1.28 -0.8,4.1 0.89,2.04 1.22,1.59 -1.1,3.31 -1.34,0.7 -0.5,4.9 -0.79,2.75 -1.68,-0.32 -0.85,2.3 -1.64,0.06 -0.33,-2.78 -0.97,-3.4 -0.74,-4.18 -0.74,-1.86 -1.42,1.55 -1.41,1.55 -1.82,0.46 -1.62,-1.74 -0.03,-3.18 0.28,-3.36 0.3,-3.35 1.32,-1.68 0.82,-0.5 0.82,-0.5 0.82,-0.51 0.82,-0.5 1.22,-1.38 1.23,-1.37 1.1,-1.94 1.1,-1.93 0.65,-1.37 0.66,-1.37 0.65,-1.36 0.66,-1.36 0.8,-1.07 0.8,-1.06 1.22,-1.83 1.2,-1.82 0.93,-0.68 0.92,-0.68 1.43,0.03 1.04,-2.5 0.76,-0.04 0.76,-0.04 1.39,-0.8 0.74,0.38 0.74,0.38 0.74,0.38 0.74,0.4 -0.93,0.98 0.64,0.78 0.65,0.78 0.68,-1.19 0.9,0.67 0.9,0.67 1.28,-0.02 1.28,-0.01 1.08,0.48 1.07,0.5 1.08,0.49 1.07,0.5 1.13,1.03 0.69,1.79 -0.56,1.83 -1.36,1.29 -1.22,-0.21 -1.23,-0.2 -1.23,-0.2 -1.23,-0.2 -0.63,0.54 1.05,0.81 1.05,0.82 0.4,1.28 0.38,1.42 0.39,1.43 1.58,0.46 1.02,0.47 -0.24,-1.4 -0.95,-1 0.36,-1.26 1.49,0.45 1.49,0.46 0.63,-0.98 -0.66,-0.9 -0.66,-0.88 1.34,-3.53 0.92,-0.2 1.24,0.58 -0.19,-2.09 -0.69,-0.63 -0.7,-0.64 -0.19,-1.79 -1.29,-1.39 1.37,-0.11 1.37,-0.11 1.13,1.24 -0.96,0.85 0.62,1.48 1.1,0.58 1.12,-1.25 -0.55,-1.79 1.18,-2.19 1.64,-3.85 0.65,-0.25 0.1,2.02 1.12,-0.37 0.07,-1.22 0.7,-0.53 0.7,-0.53 0.45,-1.81 0.9,0.4 0.9,0.4 -0.26,-2.22 -0.85,-0.4 -0.85,-0.39 -0.19,-1.06 1.25,-0.5 1.26,-0.47 0.74,-0.06 0.74,-0.05 1.12,0.04 1.13,0.06 1.13,0.06 1.12,0.06 -0.56,-1.59 -0.83,-0.24 -0.83,-0.25 -0.42,-0.44 -0.95,0.55 -0.68,-1.25 -0.9,-0.7 -0.89,-0.69 -0.62,-0.68 -0.34,-1.51 -0.35,-1.5 -0.72,-1.15 -0.72,-1.14 -0.02,-0.82 0.91,-0.5 0.92,-0.48 1.25,0.99 0.6,1.1 0.59,1.11 0.98,0.26 0.8,0.6 0.8,0.62 0.68,0.73 0.67,0.74 0.67,0.75 0.66,0.74 0.95,0.24 0.95,0.24 0.56,0.85 0.55,0.85 0.4,1.1 0.4,1.12 0.38,1.12 0.4,1.11 1.06,-0.55 -0.46,-1.07 0.2,-1.37 -0.86,-1.23 -0.46,-1.62 -0.77,-0.36 -0.76,-0.36 -0.56,-0.84 -0.55,-0.83 -0.8,0.6 -1.28,-0.95 -0.83,-1.28 -0.84,-1.28 -1.18,-0.4 -1.19,-0.38 -0.27,-1.23 -0.27,-1.22 -0.82,-0.62 -0.81,-0.62 0.18,-0.34 0.71,0.37 0.72,0.37 0.95,1.05 0.94,1.06 0.91,-0.35 -0.89,-0.54 -0.89,-0.54 -0.1,-1.82 0.77,-1.44 1.03,-0.11 1.03,-0.12 -1.13,-0.43 -1.14,-0.42 -1.24,-0.9 -1.25,-0.9 0.16,-1.4 0.91,-1.45 0.36,-1.6 -0.76,-0.13 -0.76,-0.13 -0.64,-0.85 -0.64,-0.83 0.23,-0.74 -0.39,-0.93 -0.39,-0.92 0.22,-1.77 -0.65,-0.53 0.21,-1.68 0.72,-0.26 -0.55,-0.95 -0.55,-0.95 0.24,-1.1 -1.13,-0.53 -1.06,-0.9 -0.48,-0.82 -0.48,-0.81 0.96,-0.78 0.61,0.95 0.5,-1.24 0.68,0.06 0.68,0.06 -0.64,-0.7 0.04,-1.78 0.64,-0.62 0.64,-0.61 0.99,-0.4 0.72,0.16 0.72,0.17 0.86,0.87 0.79,1.06 0.78,1.05 0.8,0.71 0.4,-0.82 0.68,-0.96 -0.55,-0.76 0.88,-0.04 0.87,-0.05 -0.73,-0.44 -0.53,-1.27 0.16,-2.37 0.63,-0.05 0.63,-0.04 -0.11,-1.63 -0.11,-1.62 -1.05,-0.03 -1.05,-0.03 0.07,-1.6 -0.37,-1.2 0.51,-0.68 0.52,-0.66 0.8,-0.25 0.8,-0.24 0.64,0.2 0.65,0.21 0.44,-0.3 0.44,-0.29 0.45,-0.29 0.44,-0.29 0.6,-1.43 -0.78,-0.14 -0.78,-0.14 -0.79,-0.13 -0.78,-0.13 0.64,-1.48 -0.67,-0.65 -0.68,-0.65 0.02,-1.74 -1.04,-0.45 -0.36,-1.4 -0.51,0.29 -0.5,0.29 -0.51,0.3 -0.5,0.29 -0.83,-0.35 -0.83,-0.35 -0.37,-0.9 -0.37,-0.9 -0.38,-0.9 -0.37,-0.9 -0.38,-0.9 -0.38,-0.9 -0.39,-0.89 -0.38,-0.9 0.41,-0.63 0.41,-0.64
v -2.81
l -0.79,-0.67 -0.8,-0.67 -0.8,-0.67 -0.8,-0.66 -0.56,-0.8 -0.57,-0.8 0.16,-1.18 0.74,-0.49 0.37,-0.24 0.38,-0.24 -0.47,-1.3 -0.75,-0.32 -0.75,-0.32 -0.78,-0.58 -0.78,-0.58 -0.66,-0.79 -0.66,-0.78 -0.95,-0.5 -0.94,-0.5 -0.14,-1.34 -0.14,-1.33 -0.84,-0.08 -0.83,-0.08 -0.14,1.65 -0.52,0.29 -0.52,0.29 -0.65,-0.56 -0.64,-0.57 -0.65,-0.55 -0.65,-0.56 -1.03,-0.45 -1.03,-0.44 -0.58,-0.58 -0.58,-0.57 -0.58,-0.58 -0.58,-0.57 -0.5,-0.76 -0.52,-0.76 -0.48,-0.66 -0.5,-0.67 -0.48,-0.65 -0.5,-0.66 -0.55,-0.8 -0.56,-0.78 -0.56,-0.8 -0.56,-0.78 0.5,-1.36 -0.65,-0.8 -0.18,1.72 -0.77,-0.3 -0.78,-0.28 -0.78,-0.28 -0.78,-0.27 -0.5,-0.67 -0.49,-0.66 -0.5,-0.65 -0.5,-0.66 0.71,-0.4 0.71,-0.38 0.53,0.05 0.54,0.06 0.53,0.06 0.53,0.06 0.27,-1.1 0.28,-1.1 0.64,-0.33 0.62,0.2 0.62,0.2 0.79,1.07 0.76,0.59 0.76,0.6 -0.03,1.03 0.57,0.4 0.58,0.39 0.76,0.12 0.77,0.13 0.36,1 -0.3,0.34 -0.29,0.34 0.83,0.04 0.84,0.05 -0.12,-1.2 0.56,-0.3 0.56,-0.27 0.02,-0.01 0.52,-0.04 0.52,-0.04 0.52,-0.04 0.53,-0.03 0.79,0.46 0.78,0.47 -0.28,-0.79 -0.28,-0.79 0.1,-1.95 -0.35,-0.8 0.28,-0.87 0.32,-0.16 0.33,-0.17 0.6,0.42 0.6,0.42 0.6,0.42 0.6,0.43 0.6,0.09 0.62,0.1 0.61,0.1 0.62,0.1 0.62,0.1 0.62,0.11 0.62,0.12 0.62,0.11 0.72,0.27 0.71,0.28 0.82,0.05 0.81,0.06 0.82,0.07 0.83,0.07 0.77,0.12 0.79,0.11 0.78,0.13 0.78,0.12 0.67,-0.13 0.67,-0.12 0.4,1.15 0.41,1.16 0.64,0.21 0.65,0.2 0.64,0.22 0.65,0.21 1.3,0.43 1.29,0.44 -0.12,0.9 1.1,0.28 1.1,0.29 0.75,0.8 0.75,0.8 0.47,-0.07 0.46,-0.07 0.47,-0.08 0.47,-0.06 0.95,0.12 0.96,0.12 0.96,0.14 0.96,0.14 0.45,-0.2 0.45,-0.19 -0.53,-0.78 -0.54,-0.78 0.45,-0.13 0.45,-0.13 0.46,-0.13 0.45,-0.13 0.46,-0.12 0.47,-0.12 0.46,-0.12 0.47,-0.12 0.73,0.58 0.72,0.57
h 2.74
l 0.24,-0.42 0.25,-0.41 0.99,0.51 0.98,0.52 0.98,0.52 0.98,0.52 0.9,-0.03 0.9,-0.02 0.92,-0.01 0.91,-0.01 0.72,0.5 0.71,0.52 0.71,0.51 0.7,0.51 0.84,0.02 0.84,0.03 0.84,0.02 0.84,0.03 1.2,0.49 1.2,0.48 1.2,0.5 1.2,0.49 -0.4,0.17 -0.38,0.18 -0.39,0.18 -0.39,0.18 -0.47,0.12 -0.47,0.12 -0.46,0.12 -0.47,0.13 -0.46,0.12 -0.46,0.13 -0.45,0.13 -0.46,0.14 -0.7,0.17 -0.71,0.19 -0.7,0.19 -0.7,0.19 -0.69,0.2 -0.68,0.2 -0.68,0.2 -0.68,0.21 -1.1,-0.02
h -1.08
l -1.08,-0.01
h -1.08
l -1.3,-0.4 -1.3,-0.38 -0.63,0.1 -0.63,0.1 -0.63,-0.45 -0.62,-0.46 -0.62,-0.45 -0.63,-0.45 -0.66,-0.16 -0.67,-0.16 -0.66,-0.15 -0.67,-0.16 -0.66,-0.15 -0.66,-0.14 -0.66,-0.15 -0.66,-0.14 -1.13,-0.27 -1.14,-0.26 -1.12,-0.25 -1.13,-0.25 -1,-0.28 -1,-0.28 -0.99,-0.27 -0.99,-0.27 -0.49,0.1 -0.48,0.1 -0.48,0.1 -0.49,0.1 -0.47,0.1 -0.48,0.12 -0.48,0.11 -0.47,0.11 0.82,0.55 0.81,0.54 0.6,-0.08 0.6,-0.09 0.61,-0.08 0.61,-0.07 0.69,0.2 0.68,0.19 0.69,0.2 0.68,0.2 0.69,0.2 0.69,0.22 0.68,0.2 0.7,0.22 -0.47,0.5 -0.45,0.52 -0.45,0.51 -0.45,0.52 0.92,0.63 0.92,0.63 0.91,0.64 0.91,0.64 0.85,0.2 0.85,0.2 0.85,0.22 0.85,0.22 0.86,0.21 0.85,0.23 0.86,0.22 0.86,0.24 0.32,-0.7 0.32,-0.7 0.78,0.66 0.79,0.67 0.78,0.66 0.77,0.67 0.95,0.97 0.95,0.97 -0.5,0.05 -0.5,0.06 -0.5,0.06 -0.5,0.06 0.57,1.02 0.56,1.01 1.25,0.7 1.25,0.7 0.57,1 0.56,1.02 0.56,1 0.55,1.02 0.87,1.08 0.87,1.07 0.86,1.09 0.85,1.08 0.99,0.56 1,0.56 0.98,0.57 1,0.57 0.98,0.58 0.99,0.58 0.98,0.58 0.99,0.6 1.18,0.77 1.17,0.79 1.17,0.8 1.17,0.79 1.16,0.8 1.16,0.81 1.16,0.82 1.15,0.82 -0.26,-1.2 -0.27,-1.17 0.79,-0.26 0.8,-0.26 0.05,-1.43 -0.97,-0.59 -0.96,-0.58 -0.28,-0.84 -0.29,-0.84 0.56,-0.5 0.56,-0.48 0.56,-0.49 0.57,-0.48 0.64,0.05 0.64,0.05 0.64,0.05 0.65,0.06 0.91,0.4 0.92,0.4 0.91,0.42 0.91,0.41 0.94,0.16 0.94,0.16 0.94,0.17 0.94,0.17 1.34,0.38 1.33,0.4 1.34,0.4 1.34,0.41 0.7,0.44 0.7,0.45 0.7,0.44 0.7,0.45 0.7,0.45 0.69,0.45 0.7,0.45 0.69,0.45 1.2,0.55 1.2,0.56 1.13,0.84 1.12,0.86 1.12,0.85 1.11,0.87 1.1,0.88 1.09,0.89 1.08,0.89 1.08,0.9 1.08,0.9 1.08,0.9 0.6,0.78 0.6,0.8 0.59,0.79 0.59,0.8 0.26,1.23 -0.65,0.35 -0.65,0.36 0.67,0.84 0.67,0.85 0.66,0.85 0.66,0.86 1.07,0.68 -0.1,0.67 0.58,0.62 0.57,0.62 1.11,1 1.1,0.4 1.1,0.4 0.38,0.65 0.38,0.65 0.57,0.59 0.47,0.56 0.47,0.56 0.3,0.78 0.28,0.77 0.42,0.61 0.43,0.62 1.3,0.65 0.34,0.38 0.47,-0.58 0.64,-0.28 0.64,-0.27 0.88,-0.04 0.88,-0.04 0.88,-0.04 0.88,-0.03 0.98,0.2 0.98,0.2 0.87,0.4 0.88,0.41 0.88,0.41 0.87,0.42 0.85,0.8 0.83,0.81 0.3,1.11 0.28,1.11 0.6,1.17 0.6,1.17 0.1,1.03 0.08,1.02 -0.8,-0.3 -0.82,-0.32 -1.1,-0.77 -1.1,-0.77 -0.78,-0.17 -0.78,-0.16 -0.77,-0.17 -0.78,-0.16 -0.23,-0.89 -0.24,-0.9 -0.64,0.04 -0.65,0.04 -0.64,0.04 -0.64,0.04 -0.58,0.72 0.56,0.52 0.22,0.72 -0.56,-0.2 -0.28,0.39 -0.49,0.3 -0.64,-0.6 -0.64,-0.59 -0.33,-0.65 -0.55,-0.08 -0.79,-0.64 -0.8,-0.64 -0.48,-0.1 -0.34,1 -0.8,0.56 0.19,0.8 0.18,0.8 0.19,0.79 0.18,0.8 0.64,1.07 0.63,1.07 0.31,1.28 0.3,1.27 -0.62,-0.88 -0.62,-0.88 -1.15,-0.17 -0.46,-0.64 -0.45,-0.63 -0.46,-0.64 -0.47,-0.63 -0.79,0.13 -0.78,0.13 0.45,1.1 0.45,1.1 0.45,0.82 0.44,0.8 0.45,0.82 0.44,0.8 0.84,1.1 0.84,1.1 -0.06,1 -0.06,1 0.57,0.86 0.57,0.87 1.02,0.03 1.02,0.04 0.7,-1.35 1.26,0.67 1.04,-1.1 -0.43,-0.85 -0.43,-0.85 -0.44,-0.85 -0.44,-0.84 0.65,-0.59 0.64,-0.58 0.2,-1.26 0.76,0.24 0.77,0.25 0.13,0.83 0.13,0.83 0.12,0.83 0.12,0.83 0.71,0.91 0.7,0.92 0.29,0.7 0.28,0.7 0.27,0.7 0.28,0.7 0.9,1.12 0.87,1.11 0.95,-0.63 0.94,-0.64 0.72,0.22 0.71,0.21 0.72,0.22 0.72,0.22 0.68,0.08 0.7,0.08 0.68,0.08 0.69,0.08 1.18,-0.05 1.19,-0.05 1.03,0.68 1.03,0.68 0.26,0.91 0.26,0.92 0.78,0.23 0.78,0.23 1.09,-0.71 1.09,0.9 1.08,0.92 1.03,1.02 1.03,1.01 -0.02,1.39 0.65,0.91 0.63,0.91 0.63,0.92 0.63,0.92 0.76,1.07 0.76,1.09 0.74,1.08 0.74,1.08 0.64,1.1 0.63,1.1 0.62,1.1 0.61,1.11 0.36,1.22 0.34,1.22 0.34,1.22 0.33,1.22 0.27,1.2 0.25,1.19 0.25,1.19 0.24,1.19 -0.32,1.34 -0.33,1.34 0.27,1.13 0.26,1.12 -1.07,0.06 0.34,1.14 0.33,1.13 -0.03,1.01 -0.04,1.01 -0.04,1.02 -0.04,1.01 -0.35,1.29 -0.35,1.29 0.5,0.75 0.5,0.75 0.5,0.75 0.5,0.75 -0.45,1.3 -0.94,-0.5 -0.94,-0.5 -0.3,-0.68 -0.3,-0.66 -2.12,2.13 -0.15,1.34 0.1,1.16 0.08,1.16 0.09,1.16 0.07,1.16 0.26,0.95 0.25,0.95 0.25,0.95 0.25,0.95 0.58,1 0.58,1 1.55,0.36 1.55,0.38 0.96,0.23 0.95,0.24 0.96,0.23 0.95,0.24 1.2,-0.27 1.18,-0.27 1.2,0.25 1.2,0.25 1.08,0.8 1.08,0.8 1.08,0.79 1.07,0.8 0.84,1.07 0.82,1.07 0.83,1.07 0.81,1.07 0.04,0.83 0.04,0.82 0.04,0.83 0.03,0.82 -0.1,0.99 -0.08,0.98 -0.1,0.98 -0.1,0.98 0.1,0.92 0.08,0.91 0.09,0.92 0.08,0.91 -0.04,1.2 -0.04,1.2 -0.06,1.2 -0.06,1.2 -1.67,-0.7 -0.4,-1.1 -0.39,-1.07 -2.12,0.26 -1.52,1.42 -1.53,-0.36 -1.3,-0.66 -1.3,-0.66 -2.16,0.8 -0.64,0.91 -0.64,0.91 -0.57,-1.06 -0.59,-1.05 -0.66,0.91 -0.67,0.91 0.45,0.68 0.45,0.67 0.45,0.68 0.44,0.67 0.42,1.13 0.4,1.12 0.4,1.12 0.4,1.13 0.24,0.68 0.23,0.68 0.23,0.68 0.23,0.68 0.65,0.77 0.65,0.78 1.12,-1.27 1.08,0.64 1.08,0.64 0.85,0.83 0.85,0.82 1.85,0.18 1.2,-0.99 1.69,0.13 0.53,-0.27 1.95,0.17 1.77,0.7 0.59,0.72 0.58,0.73 0.27,0.65 0.27,0.65 0.7,0.6 1.04,1.24 1.03,-0.1 1.02,0.63 1.01,0.63 0.49,0.84 -0.56,0.83 -0.57,0.83 -2.77,0.25 -3.26,0.61 -0.97,-0.96 -2.03,-0.36 -0.75,-0.83 -0.75,-0.83 -1.46,-0.53 -0.47,-0.97 -0.47,-0.97 -1.04,-0.54 -1.28,-0.08 -1.06,-0.8 -1.8,-0.23 -1.57,-0.1 0.32,0.85 0.32,0.85 -1.2,-0.9 -0.4,-0.85 -0.4,-0.84 -0.25,-0.71 -0.26,-0.71 -0.27,-0.71 -0.26,-0.71 -0.68,-0.77 -0.7,-0.77 -0.37,-1.2 -0.38,-1.21 -1.54,-0.69 -0.42,-0.67 -0.43,-0.67 -0.43,-0.68 -0.43,-0.67 -1.52,-0.37 -1.28,-1.06 -1.29,-1.05 -0.62,-0.64 -0.61,-0.64 -0.63,-0.64 -0.62,-0.63 -1.06,-0.52 -1.06,-0.52 -0.07,1.24 -0.06,1.23 -0.14,0.97 -0.13,0.98 -0.15,0.97 -0.14,0.97 -1.05,0.9 -1.4,0.68 -0.37,-0.89 -0.38,-0.89 -0.4,-0.89 -0.38,-0.88 -0.97,-0.88 -0.97,-0.88 -1.6,-0.58 -1.6,-0.57 -0.45,-1.07 -1.12,0.83 -1.25,-0.27 -1.26,-0.26 -1.34,-0.67 -0.97,-1.06 -1.14,-0.76 -1.65,-0.56 -1.47,1.62 0.85,0.78 0.24,0.94 0.23,0.93 -1.01,0.32 0.08,0.7 -0.63,0.26 -0.77,0.5 0.4,1.11 -1.12,1.22 -0.84,1.37 -0.84,1.36 0.66,0.84 0.65,0.84 0.02,1.18 0.02,1.18 -0.36,1.05 -0.35,1.06 -0.36,1.05 -0.37,1.05 -0.05,1.2 -0.05,1.21 -0.06,1.21 -0.07,1.21 -0.22,1.43 -0.23,1.44 -0.22,0.84 -0.22,0.84 -0.23,0.84 -0.23,0.83 0.63,1.12 -0.59,1.49 -0.61,1.23 -0.62,1.24 -0.82,0.94 0.22,1.2 0.2,1.2 1.06,1.4 1.05,1.42 0.59,0.96 0.58,0.97 0.18,1.54 0.17,1.54 0.53,1.04 0.53,1.04 0.52,1.05 0.52,1.04 -1.01,1.05 -0.01,1.34 -0.02,1.33 1.02,0.27 -0.78,1.17 -0.8,1.15 0.04,1.14 0.03,1.13 -0.53,1.42 -1.55,-0.32 -1.54,-0.32 -2.57,-2.66 -1.97,-1.84 -1.28,-0.58 -2.22,-1.49 -0.98,-1.35 -0.99,-1.35 -1.09,-1.27 -3.48,-1.94 -0.78,-1.05 -0.79,-1.05 -0.79,-1.04 -0.79,-1.05 -1.07,-1.37 -1.07,-1.37 -0.74,-1.53 -0.74,-1.53 -0.77,-1.02 -0.78,-1.03 -0.52,0.94 -0.52,0.94 -0.53,0.94 -0.53,0.94 -1.54,0.78 -2,-0.57 -2,-0.56 0.5,-1.64 -1.04,-0.56 -3.3,-0.46 -1.72,0.4 -1.43,-1.43 -2.39,-0.88 -1.68,1.5 -1.7,1.5 -1.58,1.1 -1.6,1.1 -1.33,1.1 -1.33,1.09 -2.05,0.78 -2.06,0.78 -2.44,0.71 -1.2,0.5 -1.22,0.5 -1,-1.4 -1.03,-1.4 -1.13,0.07 -1.4,1.35 -0.8,1.22 -0.81,1.21 -1.4,0.21 -1.4,0.21 -2.74,-1.03 -2.21,0.2 -2.16,-1.94 -2.6,-2.96 -0.94,0.95 -1.55,-0.33 -0.45,1.43 -1.24,0.4 0.77,1.03 -0.01,0.72 1.23,1.8 1.47,2.02 1.2,0.17 0.63,0.8 1.76,0.5 0.44,1.08 0.05,1.01 0.53,0.8 0.83,0.48 0.53,0.77 0.5,0.52 -0.7,-1.93 0.16,-1.71 0.49,-0.57 0.89,0.54 0.5,1.59
v 1.84
l 0.71,0.85 0.34,-0.32 0.3,0.7 1.55,-1.25 1.78,-0.83 1.31,-0.58 0.43,-1.3 0.43,-1.3 0.5,-1.28 0.5,-1.28 0.37,-1.2 0.37,-1.18 0.27,-1.25 0.34,0.1 0.2,1.21 -0.11,0.65 1,1.96 1.56,1.31 1.5,0.31 1.65,-0.52 1.4,-0.24 1.49,0.97 0.88,0.54 0.87,-0.12 0.2,0.6 -0.1,1.02 -0.1,1.02 -0.07,0.95 -0.6,1.38 -0.09,1.14 -0.1,1.14 -1.02,0.43 -0.24,0.9 0.1,1.55 0.84,1.62 -0.1,0.45 -1.02,0.56 -0.54,0.88 -0.54,0.89 0.19,1.42 -0.34,0.84 -1.4,0.74 -0.7,1.14 0.33,1.08 -0.88,1.32 -1.33,0.4 -0.64,0.85 -0.65,0.84 -1.01,0.69 -0.74,0.77 -0.75,0.78 -0.14,1.42 0.18,0.94 -1.02,1.13 -1.03,1.13 -0.87,0.75 -0.87,0.76 -0.87,0.75 -0.87,0.75 -0.86,1.43 -0.86,1.43 -1.02,0.61 -0.75,0.15 -0.6,0.87 -0.58,0.86 -0.72,0.59 -0.72,0.58 -1,0.48 -1,0.48 -0.59,0.4 -0.4,0.94 -0.6,0.45 -0.26,0.84 -1.22,0.41 -0.72,0.67 -0.86,0.25 -0.86,0.24 -0.9,-1.37 -0.19,-1.53 -0.54,-0.67 -0.82,-1.87 -0.9,-0.89 0.47,-0.3 -0.47,-1.18 0.2,-0.64 -0.32,-1.17 -0.53,-1.07 -0.85,-0.59 -0.39,-1.04 -1.39,-0.58 -1.66,-1.9 -1.06,-2.07 -0.96,-0.7 -0.97,-0.7 -1.11,-0.12 -1.98,-2.2 -0.58,-1.89 -0.18,-1.7 -1.82,-2.75 -1.24,-0.8 -1.3,-0.22 -1,-1.42 0.02,-0.68 -0.85,-1.3 -0.75,-0.46 -1.19,-1.9 -1.69,-1.94 -1.4,-1.69 -1.08,0.3 0.1,-1.67 -0.05,-1.03 0.09,-1.22 -0.13,-0.4 -0.43,1.31 -0.14,2.3 -0.37,1.64 -0.44,0.62 -0.86,-0.76 -1.15,-1.05 -2.08,-3.8 -0.19,0.31 1.29,2.86 1.72,2.59 2.27,4.08 1.03,1.36 0.94,1.44 1.23,1.33 1.24,1.32 -0.38,0.61 0.34,1.84 1.5,0.92 1.52,0.92 0.49,0.46 1.15,2.58 -0.43,0.66 0.76,2.82 1.35,3.13 1,0.42 1.45,0.66 1.86,2.83 1.05,2.36 1.52,0.94 0.93,0.4 0.93,0.38 0.93,0.38 0.93,0.38 0.8,0.56 0.8,0.55 0.79,0.57 0.8,0.57 0.91,0.67 1.34,0.4 0.73,0.63 0.1,1.17 -1.3,1.17 1.2,0.37 0.89,0.2 0.67,0.96 1.31,0.72 1.24,-0.46 1.12,-0.8 1.1,-0.81 1.33,-0.7 1.32,-0.71 1,-0.87 1.02,-0.88 1.18,-0.7 0.78,-0.87 1.38,-0.7 0.77,-0.4 1.04,-0.9 1.23,-0.86 0.95,-1.45 0.92,-0.44 0.22,0.72 0.13,1.66 0.33,1.4 -0.31,1.22 -0.03,1.6 -0.04,1.61 -0.14,0.89 -0.15,0.88 -0.15,0.88 -0.14,0.88 -0.4,1.58 -0.25,1.27 -0.24,1.26 -0.36,1.21 -0.36,1.22 -0.37,1.21 -0.37,1.21 -0.41,0.98 -0.42,0.98 -0.43,0.98 -0.42,0.98 -0.61,1.22 -0.62,1.22 -0.63,1.23 -0.63,1.22 -0.57,0.8 -0.58,0.8 -0.58,0.8 -0.58,0.8 -0.9,1.05 -0.9,1.04 -0.9,1.04 -0.9,1.03 -0.56,0.74 -0.56,0.73 -0.56,0.74 -0.56,0.73 -0.64,1.07 -0.64,1.07 -0.65,1.06 -0.64,1.06 -0.47,1.61 -0.55,0.84 -0.9,0.86 -0.9,0.85 -0.56,1.32 -1,0.54 -0.11,1 -0.11,0.98 -0.78,1.35 -0.2,0.96 -0.18,0.96 -1.04,1.22 -0.25,0.91 -0.26,0.9 -0.25,0.91 -0.26,0.9 0.28,1.43 0.93,0.19 0.93,0.18 0.14,0.65 -0.32,0.9 -0.33,0.9 0.22,0.74 -0.09,1.28 0.56,0.65 0.55,0.64 0.68,1.06 0.69,1.06 0.54,0.1 0.54,0.1 0.55,0.98 0.08,2.55 0.51,2.08 0.4,3.83 0.6,1.04 -0.37,1.02 -0.37,1.03 -0.51,1.04 -0.52,1.05 -0.89,1.07 -0.89,1.07 -0.66,0.45 -0.66,0.46 -0.66,0.45 -0.66,0.45 -0.81,0.57 -0.81,0.56 -0.82,0.56 -0.82,0.55 -0.79,0.91 -0.8,0.91 -0.8,0.9 -0.8,0.9 -1.12,0.8 -0.5,0.58 -0.5,0.58 -0.5,0.58 -0.5,0.58 -1.2,0.9 -0.19,1.8 0.37,0.35 0.36,0.35 0.37,0.35 0.37,0.35 0.3,0.61 0.32,0.61 0.07,0.7 0.52,-0.27
v 2.33
l -0.45,1.23 0.72,0.19 -0.4,1.1 -0.62,0.6 -0.61,0.6 -1.23,0.76 -1.23,0.75 -0.89,0.58 -0.9,0.57 -0.89,0.57 -0.89,0.56 -0.65,0.62 -0.64,0.6 0.28,0.9 0.77,-0.05 -0.23,1.27 -0.36,0.94 -0.36,0.93 -0.3,1.98 -0.37,0.62 -0.38,0.61 -1.02,0.86 -1.02,0.84 -0.58,0.49 -0.63,0.74 -0.62,0.74 -0.4,0.68 -0.41,0.68 -0.84,1.02 -0.84,1.02 -0.83,0.8 -0.84,0.78 -0.83,0.79 -0.85,0.78 -1.04,0.92 -1.04,0.92 -1.11,0.78 -1.12,0.76 -0.77,0.4 -0.76,0.4 -0.77,0.38 -0.76,0.39 -0.74,0.22 -0.74,0.22 -0.37,0.7 -0.44,0.01 -0.44,0.01 -0.44,0.01
h -0.43
l -0.71,0.37 -0.71,0.35 -0.77,0.05 -0.77,0.04 -0.76,0.03 -0.75,0.03 -0.85,0.28 -0.84,0.28 -0.57,0.04 -0.57,0.03 -0.7,0.33 -0.71,0.33 -0.71,0.33 -0.7,0.32 -0.59,0.17 -0.58,0.17 -0.57,0.16 -0.58,0.16 -0.83,0.52 -0.83,0.52 -0.6,0.09 -0.6,0.08 -0.56,-0.36 -0.55,-0.36 -0.44,0.01 -0.45,0.01 -0.56,-0.48 -0.56,-0.48 -0.13,0.32 -0.34,-0.6 0.03,-1.36 -0.42,-0.77 -0.42,-0.76 0.43,-0.24 0.42,-0.23 -0.05,-1.8 -0.43,-0.53 -0.44,-0.54 -0.42,-0.54 -0.43,-0.54 -0.33,-0.5 -0.33,-0.5 -0.66,-1
h -0.01
l -0.48,-0.77 -0.48,-0.77 -0.47,-0.78 -0.47,-0.79"
           id="path587"
           style="display:inline;fill:#e4af76;fill-opacity:1;stroke:none" />
      </g>
    </g>
  </g>
</svg>
